<svg display="none" version="1.1" xmlns="http://www.w3.org/2000/svg">
	<symbol id="smiley" viewBox="-0.3 -0.3 20.6 20.6">
		<path d="M9.47790967,0 L13.2369601,10.2600612 L10.6550756,11.1946177 L6.89553268,0.933088685 L9.47790967,0 Z M4.05900606,1.95718654 L7.81904152,12.2187156 L5.23666453,13.1518043 L1.47761415,2.89174312 L4.05900606,1.95718654 Z M15.5371127,9.25259939 L16.4778604,11.8174924 L3.52263212,16.5005505 L2.58237699,13.9361468 L0,14.8692355 L1.88001773,20 L20,13.4488073 L18.1189972,8.31804281 L15.5371127,9.25259939 Z"></path>
	</symbol>
	<symbol id="dribbble" viewBox="0 0 20 20">
		<path d="M10,20 C4.48559458,20 0,15.5141784 0,10 C0,4.48582157 4.48559458,0.000258966723 10,1.77635684e-15 C15.5138882,0.000258966723 20,4.48582157 20,10 C20,15.5141784 15.5138882,20 10,20 Z M9.46154244,7.20471319 C8.10841566,4.80745824 6.66218383,2.7867409 6.37097191,2.38586042 C4.04438008,3.49734559 2.3025397,5.64210799 1.74339213,8.22297035 L1.82589355,8.22297035 C2.60409662,8.22297035 5.82941085,8.1603004 9.46154244,7.20471319 Z M11.4671805,11.4579826 C6.83960068,13.0700505 5.08819118,16.2289266 4.84663529,16.7025767 C6.27450473,17.8042212 8.06134589,18.4614787 10,18.4614787 C11.156313,18.4614787 12.2583148,18.2273728 13.2630735,17.8049981 C13.1283298,17.0185161 12.6356489,14.4798653 11.4767496,11.454875 C11.4733875,11.4556519 11.4705426,11.4569468 11.4671805,11.4579826 Z M15.5658718,3.66360223 C14.0785186,2.35789201 12.1300367,1.56519487 10,1.56519487 C9.34464387,1.56519487 8.70713288,1.64081316 8.09470853,1.78324485 C8.43816273,2.24783115 9.88361868,4.24731322 11.2028656,6.66321378 C14.0531733,5.58332254 15.3305229,3.98575683 15.5658718,3.66360223 Z M10.5782858,10.038845 C10.6711323,10.0093228 10.7652718,9.98109543 10.8594114,9.95442186 C10.6584596,9.50252493 10.4412145,9.05011006 10.2136244,8.6039104 C6.46355972,9.71876214 2.82418662,9.80603392 1.77649615,9.80603392 C1.67951172,9.80603392 1.60554492,9.80525702 1.55511302,9.80422116 C1.55304402,9.87388321 1.55123364,9.94328629 1.55123364,10.0129483 C1.55149227,12.1584876 2.35581648,14.1186068 3.67816686,15.6102551 C4.03506957,15.0200699 6.3564889,11.4051534 10.5782858,10.038845 Z M13.1650546,11.0400104 C14.2155899,13.9417325 14.6712874,16.3213777 14.7845653,16.9719021 C16.6342523,15.6957141 17.9524647,13.7021883 18.3341954,11.3971255 C18.012983,11.2989771 16.6319247,10.9120808 14.8665494,10.9125987 C14.3283505,10.9118218 13.7552372,10.9483361 13.1650546,11.0400104 Z M11.9014121,8.015538 C12.0907257,8.40554189 12.2733151,8.80176097 12.4429732,9.20108766 C12.5009052,9.33600932 12.5565096,9.47067202 12.6115968,9.60481678 C13.2656598,9.52427813 13.9179124,9.49268419 14.5375782,9.49268419 C16.4586458,9.49268419 18.066777,9.79386249 18.4459215,9.87077561 C18.4135933,7.92386378 17.7197021,6.1354396 16.5791652,4.72018646 C16.2843325,5.10319824 14.8572389,6.79580474 11.9014121,8.015538 Z"></path>
	</symbol>
	<symbol id="github" viewBox="0 0 20 20">
		<path d="M9.99907916,0 C4.47773105,0 0,4.5904205 0,10.2533868 C0,14.7833822 2.86503576,18.6260419 6.83876117,19.9818304 C7.33908346,20.0762447 7.5214095,19.7596422 7.5214095,19.4877292 C7.5214095,19.2447699 7.512815,18.5996059 7.50790386,17.7442129 C4.72635747,18.3635703 4.13947635,16.3695415 4.13947635,16.3695415 C3.68458209,15.1849574 3.02894503,14.8696139 3.02894503,14.8696139 C2.12099819,14.2338913 3.09770097,14.2464799 3.09770097,14.2464799 C4.10141502,14.3188641 4.62936247,15.30329 4.62936247,15.30329 C5.52134811,16.869937 6.97013414,16.417378 7.53982627,16.1549064 C7.63068234,15.4927479 7.88913104,15.0408184 8.17459099,14.784641 C5.95414224,14.525946 3.6195095,13.6460053 3.6195095,9.7171139 C3.6195095,8.59799041 4.00933116,7.68217225 4.64900703,6.96588286 C4.54587311,6.7065584 4.20270727,5.66359573 4.74722981,4.25241751 C4.74722981,4.25241751 5.5864207,3.97672792 7.4968538,5.30356275 C8.29430001,5.07570971 9.15006599,4.96241262 10.0003069,4.95800662 C10.849934,4.96241262 11.7050861,5.07570971 12.5037601,5.30356275 C14.4129654,3.97672792 15.2509285,4.25241751 15.2509285,4.25241751 C15.7966788,5.66359573 15.453513,6.7065584 15.350993,6.96588286 C15.9918966,7.68217225 16.3786488,8.59799041 16.3786488,9.7171139 C16.3786488,13.6560761 14.0403327,14.5227989 11.8131312,14.7764585 C12.1716443,15.0930609 12.4914822,15.7187126 12.4914822,16.6754436 C12.4914822,18.045709 12.4792044,19.1516145 12.4792044,19.4877292 C12.4792044,19.7621599 12.6596888,20.0812801 13.1667639,19.981201 C17.1374198,18.6222653 20,14.7821233 20,10.2533868 C20,4.5904205 15.5222689,0 9.99907916,0"></path>
	</symbol>
	<symbol id="tumblr" viewBox="0 0 12 20">
		<path d="M10.9957284,15.9743292 C10.6076192,16.1516993 9.86487665,16.3060213 9.31043501,16.3200505 C7.63978729,16.3631405 7.31549124,15.1957047 7.30084561,14.3479359 L7.30084561,8.12194582 L11.4936797,8.12194582 L11.4936797,5.09462956 L7.31653736,5.09462956 L7.31653736,0 L4.25769331,0 C4.20747973,0 4.11960596,0.042087813 4.10809868,0.149311527 C3.9292128,1.70856479 3.16659402,4.44527473 0,5.53855578 L0,8.12194582 L2.11315491,8.12194582 L2.11315491,14.6575819 C2.11315491,16.8942486 3.83610845,20.0728805 8.38462209,19.9987258 C9.91822858,19.9736736 11.622352,19.3573877 12,18.8272817 L10.9957284,15.9743292"></path>
	</symbol>
	<symbol id="codepen" viewBox="0 0 20 20" fill-rule="evenodd">
		<path d="M10.0000853,0 C4.47705577,0 0,4.47708886 0,10.000064 C0,15.5230817 4.47705577,20 10.0000853,20 C15.5229442,20 20,15.5230817 20,10.000064 C20,4.47708886 15.5229442,0 10.0000853,0 Z M15.1203895,10.8893508 L13.7910184,10.000064 L15.1203895,9.11081977 L15.1203895,10.8893508 Z M10.5314159,14.6588218 L10.5314159,12.1803046 L12.8352185,10.6395506 L14.6949311,11.8833072 L10.5314159,14.6588218 Z M10.0000938,11.257208 L8.12055579,10.000064 L10.0000938,8.74291988 L11.8794613,10.000064 L10.0000938,11.257208 Z M9.46860118,14.6588218 L5.30504334,11.8833072 L7.16492643,10.6395506 L9.46860118,12.1803046 L9.46860118,14.6588218 Z M4.87962754,9.11081977 L6.20912653,10.000064 L4.87962754,10.8893508 L4.87962754,9.11081977 Z M9.46860118,5.34130613 L9.46860118,7.81982328 L7.16492643,9.36091836 L5.30504334,8.11677805 L9.46860118,5.34130613 Z M10.5314159,5.34130613 L14.6949311,8.11677805 L12.8352185,9.36091836 L10.5314159,7.81982328 L10.5314159,5.34130613 Z M16.1784717,8.04685618 C16.1773632,8.03905392 16.1754019,8.03159275 16.1741229,8.02379049 C16.1714795,8.00878287 16.1687508,7.99381788 16.1648284,7.97919398 C16.1625261,7.97041111 16.1592858,7.96196932 16.1565571,7.95352754 C16.1522936,7.94048114 16.1480727,7.92747738 16.1428712,7.9148147 C16.1392471,7.90603183 16.1350689,7.89724896 16.1310185,7.88880717 C16.1254333,7.87674139 16.1196349,7.86501668 16.1129411,7.85367569 C16.1080807,7.84519127 16.1028792,7.83704793 16.0978482,7.82894723 C16.0906854,7.81786205 16.0833522,7.80711796 16.0753367,7.79671495 C16.0695383,7.78891269 16.0633562,7.78111044 16.057174,7.77360663 C16.0486896,7.76388578 16.0399067,7.7541223 16.0306548,7.74499835 C16.0237053,7.73787825 16.0167983,7.73071553 16.0095077,7.72419233 C15.9997442,7.71540946 15.9896822,7.70692504 15.9794071,7.69882433 C15.9714769,7.69264222 15.963632,7.6864601 15.9553608,7.68061906 C15.9522484,7.67865784 15.9495197,7.67605709 15.9465779,7.67409587 L10.2947469,3.906245 C10.1162326,3.78720728 9.88378449,3.78720728 9.70522752,3.906245 L4.05343918,7.67409587 C4.05049734,7.67605709 4.04772604,7.67865784 4.04465629,7.68061906 C4.0363424,7.6864601 4.02854012,7.69264222 4.02073785,7.69882433 C4.01033482,7.70692504 4.00023023,7.71540946 3.99067991,7.72419233 C3.98317608,7.73071553 3.97635442,7.73787825 3.96936222,7.74499835 C3.96011034,7.7541223 3.95132745,7.76388578 3.94301355,7.77360663 C3.93666088,7.78111044 3.93047875,7.78891269 3.92463771,7.79671495 C3.91683543,7.80711796 3.90933161,7.81786205 3.9023394,7.82894723 C3.89696735,7.83704793 3.89193637,7.84519127 3.88707594,7.85367569 C3.88055273,7.86501668 3.87471168,7.87674139 3.86899854,7.88880717 C3.86494818,7.89724896 3.86072727,7.90603183 3.8571459,7.9148147 C3.85194439,7.92747738 3.84772348,7.94048114 3.84345995,7.95352754 C3.84068865,7.96196932 3.8376189,7.97041111 3.83518868,7.97919398 C3.83126623,7.99381788 3.82866547,8.00878287 3.82589417,8.02379049 C3.82461511,8.03159275 3.82265388,8.03905392 3.82167327,8.04685618 C3.81856089,8.06962342 3.81681283,8.09273175 3.81681283,8.11613852 L3.81681283,11.8839894 C3.81681283,11.9073962 3.81856089,11.9305045 3.82167327,11.9536128 C3.82265388,11.9611166 3.82461511,11.9688762 3.82589417,11.9763374 C3.82866547,11.991345 3.83126623,12.0062674 3.83518868,12.0209339 C3.8376189,12.0297168 3.84068865,12.0381586 3.84345995,12.046643 C3.84772348,12.0596041 3.85194439,12.0726505 3.8571459,12.0856543 C3.86072727,12.0944798 3.86494818,12.1029216 3.86899854,12.1113634 C3.87471168,12.1233439 3.88055273,12.1350686 3.88707594,12.1467933 C3.89193637,12.1549793 3.89696735,12.1630373 3.9023394,12.1711807 C3.90933161,12.1822659 3.91683543,12.1930099 3.92463771,12.203413 C3.93047875,12.2115563 3.93666088,12.2190175 3.94301355,12.2264786 C3.95132745,12.2362421 3.96011034,12.2460056 3.96936222,12.2551296 C3.97635442,12.2622497 3.98317608,12.2694124 3.99067991,12.2758929 C4.00023023,12.2847611 4.01033482,12.2932029 4.02073785,12.3013036 C4.02854012,12.3075283 4.0363424,12.3136678 4.04465629,12.3195088 C4.04772604,12.3214701 4.05049734,12.3240708 4.05343918,12.3259894 L9.70522752,16.0938829 C9.79450601,16.1534018 9.8972999,16.1833317 10.0000938,16.1833317 C10.1027172,16.1833317 10.2054684,16.1534018 10.2947469,16.0938829 L15.9465779,12.3259894 C15.9495197,12.3240708 15.9522484,12.3214701 15.9553608,12.3195088 C15.963632,12.3136678 15.9714769,12.3075283 15.9794071,12.3013036 C15.9896822,12.2932029 15.9997442,12.2847611 16.0095077,12.2758929 C16.0167983,12.2694124 16.0237053,12.2622497 16.0306548,12.2551296 C16.0399067,12.2460056 16.0486896,12.2362421 16.057174,12.2264786 C16.0633562,12.2190175 16.0695383,12.2115563 16.0753367,12.203413 C16.0833522,12.1930099 16.0906854,12.1822659 16.0978482,12.1711807 C16.1028792,12.1630373 16.1080807,12.1549793 16.1129411,12.1467933 C16.1196349,12.1350686 16.1254333,12.1233439 16.1310185,12.1113634 C16.1350689,12.1029216 16.1392471,12.0944798 16.1428712,12.0856543 C16.1480727,12.0726505 16.1522936,12.0596041 16.1565571,12.046643 C16.1592858,12.0381586 16.1625261,12.0297168 16.1648284,12.0209339 C16.1687508,12.0062674 16.1714795,11.991345 16.1741229,11.9763374 C16.1754019,11.9688762 16.1773632,11.9611166 16.1784717,11.9536128 C16.1814135,11.9305045 16.1832469,11.9073962 16.1832469,11.8839894 L16.1832469,8.11613852 C16.1832469,8.09273175 16.1814135,8.06962342 16.1784717,8.04685618 L16.1784717,8.04685618 Z"></path>
	</symbol>
	<symbol id="twitter" viewBox="0 0 20 17">
		<path d="M6.28991551,17 C3.97271297,17 1.81586744,16.2895561 0,15.0718928 C0.321006621,15.1115277 0.64764622,15.1318042 0.978821464,15.1318042 C2.90120341,15.1318042 4.67047076,14.4456922 6.07476499,13.2946736 C4.27923479,13.2600122 2.76389041,12.0192413 2.24177914,10.314176 C2.4922638,10.3642935 2.74933246,10.3911503 3.01371667,10.3911503 C3.38798054,10.3911503 3.75046637,10.3387374 4.09480961,10.2406449 C2.21763781,9.84643844 0.803321263,8.11183826 0.803321263,6.03246046 C0.803321263,6.01440287 0.803321263,5.99642179 0.803613885,5.97851722 C1.35688943,6.29995769 1.98953875,6.49300561 2.66220418,6.51527154 C1.56121292,5.74568139 0.836753356,4.43206798 0.836753356,2.94315819 C0.836753356,2.15665817 1.03910165,1.41943397 1.39229672,0.785581831 C3.41607228,3.38204953 6.43951864,5.09063454 9.84973847,5.26960365 C9.77980175,4.95550865 9.74344343,4.62794696 9.74344343,4.29158603 C9.74344343,1.92152688 11.5806723,0 13.8468122,0 C15.0269578,0 16.0933465,0.521221723 16.8418742,1.35531421 C17.7765097,1.1628019 18.6546692,0.80562882 19.447456,0.313865459 C19.1410805,1.31598538 18.4905081,2.15704075 17.6432935,2.68820945 C18.4733165,2.58445481 19.2641282,2.3537614 20,2.01242697 C19.4498701,2.87307024 18.7541607,3.62896416 17.952522,4.23404658 C17.9604228,4.4180657 17.9643732,4.60315603 17.9643732,4.78924106 C17.9643732,10.4604731 13.8372289,17 6.28991551,17"></path>
	</symbol>
	<symbol id="youtube" viewBox="0 0 20 15">
		<path d="M19.8002839,3.23594178 C19.8002839,3.23594178 19.6048754,1.76628532 19.0051789,1.11909697 C18.2446522,0.269673994 17.3921778,0.265456423 17.0012433,0.215743371 C14.2025356,0 10.0043272,0 10.0043272,0 L9.99563366,0 C9.99563366,0 5.79752313,0 2.99871751,0.215743371 C2.60776347,0.265456423 1.75560233,0.269673994 0.994801508,1.11909697 C0.395144158,1.76628532 0.20000979,3.23594178 0.20000979,3.23594178 C0.20000979,3.23594178 0,4.96180523 0,6.68764781 L0,8.30562913 C0,10.0314508 0.20000979,11.7572934 0.20000979,11.7572934 C0.20000979,11.7572934 0.395144158,13.2269707 0.994801508,13.8741591 C1.75560233,14.7236029 2.75496598,14.6967316 3.20007832,14.7857599 C4.8000979,14.9493683 10,15 10,15 C10,15 14.2025356,14.9932561 17.0012433,14.7775336 C17.3921778,14.7277996 18.2446522,14.7236029 19.0051789,13.8741591 C19.6048754,13.2269707 19.8002839,11.7572934 19.8002839,11.7572934 C19.8002839,11.7572934 20,10.0314508 20,8.30562913 L20,6.68764781 C20,4.96180523 19.8002839,3.23594178 19.8002839,3.23594178 Z M7.93522933,10.2663194 L7.93430907,4.27402798 L13.3383915,7.28061323 L7.93522933,10.2663194 Z"></path>
	</symbol>
	<symbol id="link" viewBox="0 0 20 21">
		<path d="M10,1.65789474 L7.73026316,4.04111842 C9.04605263,3.76480263 10.7236842,3.97203947 11.5953947,4.40378289 L12.0888158,3.88569079 C13.1578947,2.76315789 15.2467105,2.78042763 16.2993421,3.88569079 C17.3519737,4.99095395 17.3355263,7.21875 16.2993421,8.30674342 L13.1414474,11.6225329 C12.1052632,12.7105263 9.98355263,12.7277961 8.93092105,11.6225329 C8.55263158,11.2253289 8.30592105,10.7245066 8.17434211,10.2064145 L5.92105263,12.5723684 C6.18421053,13.0213816 6.48026316,13.4358553 6.84210526,13.8157895 C8.94736842,16.0263158 13.1414474,16.0435855 15.2467105,13.8330592 L18.4210526,10.5 C20.5263158,8.28947368 20.5263158,3.86842105 18.4210526,1.65789474 C16.3157895,-0.552631579 12.1052632,-0.552631579 10,1.65789474 L10,1.65789474 L10,1.65789474 Z M8.40460526,16.5962171 L7.91118421,17.1143092 C6.84210526,18.2368421 4.75328947,18.2195724 3.70065789,17.1143092 C2.64802632,16.0090461 2.66447368,13.78125 3.70065789,12.6932566 L6.85855263,9.37746711 C7.89473684,8.28947368 10.0164474,8.27220395 11.0690789,9.37746711 C11.4473684,9.77467105 11.6940789,10.2754934 11.8256579,10.7935855 L14.0789474,8.42763158 C13.8157895,7.97861842 13.5197368,7.56414474 13.1578947,7.18421053 C11.0526316,4.97368421 6.85855263,4.95641447 4.75328947,7.16694079 L1.57894737,10.5 C-0.526315789,12.7105263 -0.526315789,17.1315789 1.57894737,19.3421053 C3.68421053,21.5526316 7.89473684,21.5526316 10,19.3421053 L12.2697368,16.9588816 C10.9539474,17.2351974 9.27631579,17.0279605 8.40460526,16.5962171 L8.40460526,16.5962171 L8.40460526,16.5962171 Z"></path>
	</symbol>
	<symbol id="tutorial" viewBox="0 0 17 20">
		<path d="M6.375,7.14285714 L2.83333333,10.7142857 L6.375,14.2857143 L7.79166667,12.8571429 L5.66666667,10.7142857 L7.79166667,8.57142857 L6.375,7.14285714 L6.375,7.14285714 Z M9.20833333,8.57142857 L11.3333333,10.7142857 L9.20833333,12.8571429 L10.625,14.2857143 L14.1666667,10.7142857 L10.625,7.14285714 L9.20833333,8.57142857 L9.20833333,8.57142857 Z M12.75,0 L0,0 L0,20 L17,20 L17,4.28571429 L12.75,0 L12.75,0 Z M15.5833333,18.5714286 L1.41666667,18.5714286 L1.41666667,1.42857143 L11.3333333,1.42857143 L15.5833333,5.71428571 L15.5833333,18.5714286 L15.5833333,18.5714286 Z"></path>
	</symbol>
	<symbol id="project" viewBox="0 0 20 18">
		<path d="M7.14285714,1.5 L8.57142857,1.5 L8.57142857,3 L7.14285714,3 L7.14285714,1.5 L7.14285714,1.5 Z M4.28571429,1.5 L5.71428571,1.5 L5.71428571,3 L4.28571429,3 L4.28571429,1.5 L4.28571429,1.5 Z M1.42857143,1.5 L2.85714286,1.5 L2.85714286,3 L1.42857143,3 L1.42857143,1.5 L1.42857143,1.5 Z M18.5714286,16.5 L1.42857143,16.5 L1.42857143,4.5 L18.5714286,4.5 L18.5714286,16.5 L18.5714286,16.5 Z M18.5714286,3 L10,3 L10,1.5 L18.5714286,1.5 L18.5714286,3 L18.5714286,3 Z M20,1.5 C20,0.671484375 19.3604911,0 18.5714286,0 L1.42857143,0 C0.639508929,0 0,0.671484375 0,1.5 L0,16.5 C0,17.3285156 0.639508929,18 1.42857143,18 L18.5714286,18 C19.3604911,18 20,17.3285156 20,16.5 L20,1.5 L20,1.5 Z"></path>
	</symbol>
	<symbol id="joelcagedesign" viewBox="0 0 21 18">
		<path d="M1.22958237,1.02523089 L5.93039616,1.02523089 L5.93039616,2.67377349 L4.71450338,2.67377349 L4.71450338,13.8324058 C4.71450338,13.9721673 4.68099486,14.1357494 4.61397682,14.3231569 C4.54695877,14.5105644 4.460794,14.7090863 4.35547993,14.9187286 C4.25016585,15.128371 4.12730128,15.3427746 3.98688251,15.5619461 C3.84646375,15.7811176 3.70604709,15.9955213 3.56562832,16.2051636 C3.22734675,16.694329 2.84439223,17.2057215 2.41675326,17.7393565 L0.770032345,17.5964192 C1.14660994,17.0246675 1.48488644,16.4783351 1.78487198,15.9574058 C1.9125254,15.7350579 2.03698562,15.5079488 2.15825638,15.2760717 C2.27952713,15.0441946 2.38803091,14.8202619 2.48377098,14.6042668 C2.57951104,14.3882717 2.65769759,14.1865734 2.71833297,13.9991659 C2.77896834,13.8117584 2.80928558,13.6513526 2.80928558,13.5179439 L2.80928558,2.67377349 L1.22958237,2.67377349 L1.22958237,1.02523089 Z M17.9935843,4.83689008 C17.5659453,4.11267122 16.9994918,3.5441044 16.2942066,3.13117259 C15.5889214,2.71824078 14.802269,2.51177798 13.9342257,2.51177798 C13.1938359,2.51177798 12.5172829,2.66741917 11.9045465,2.97870623 C11.29181,3.28999328 10.7668432,3.70768343 10.3296302,4.23178919 C9.89241727,4.75589495 9.55254513,5.36257797 9.31000362,6.05185645 C9.06746212,6.74113493 8.94619319,7.46693111 8.94619319,8.22926676 C8.94619319,9.13136395 9.08022727,9.9302162 9.34829946,10.6258475 C9.61637165,11.3214788 9.96581765,11.8995746 10.396648,12.3601524 C10.8274783,12.8207302 11.3396799,13.2050687 11.9332683,13.5131793 C12.5268568,13.82129 13.1938359,13.975343 13.9342257,13.975343 C14.9426878,13.975343 15.8202919,13.7323522 16.5670644,13.2463632 C17.3138369,12.7603742 17.9520945,11.9615219 18.4818562,10.8497825 L20.1668729,11.6407017 C19.9243314,12.3268038 19.5126553,12.989073 18.9318322,13.6275291 C18.3510092,14.2659852 17.6345651,14.780554 16.7824785,15.1712511 C15.9303919,15.5619481 14.9873664,15.7572937 13.9533737,15.7572937 C12.9640596,15.7572937 12.0545426,15.5714771 11.2247954,15.1998385 C10.3950481,14.8281999 9.65626504,14.2993375 9.00842392,13.6132354 C8.3605828,12.9271333 7.86593321,12.1139875 7.5244603,11.1737735 C7.1829874,10.2335595 7.0122535,9.2520671 7.0122535,8.22926676 C7.0122535,7.20011364 7.1829874,6.22815026 7.5244603,5.31334748 C7.86593321,4.3985447 8.34462636,3.6028688 8.96055413,2.92629591 C9.57648189,2.24972302 10.3104781,1.71609607 11.1625647,1.32539905 C12.0146513,0.934702031 12.938529,0.73935645 13.9342257,0.73935645 C14.821417,0.73935645 15.5873261,0.864822311 16.2319759,1.1157578 C16.8766256,1.36669328 17.4239315,1.66527026 17.8739098,2.01149771 C18.3238881,2.35772515 18.7116296,2.73412273 19.0371458,3.14070174 L20.0519854,3.14070174 L20.0519854,4.83689008 L17.9935843,4.83689008 Z"></path>
	</symbol>
	<symbol id="experiment" viewBox="0 0 14 20">
		<path d="M7,0 C3.13400938,0 0,3.19796875 0,7.14285714 C0,9.4796875 1.09983125,11.554308 2.8,12.8574777 L2.8,17.1428571 C2.8,17.9318304 3.42678438,18.5714286 4.2,18.5714286 C4.2,19.3604018 4.82678437,20 5.6,20 L8.4,20 C9.17321562,20 9.8,19.3604018 9.8,18.5714286 C10.5732156,18.5714286 11.2,17.9318304 11.2,17.1428571 L11.2,12.8574777 C12.9001688,11.554308 14,9.4796875 14,7.14285714 C14,3.19796875 10.8659906,0 7,0 L7,0 Z M9.8,16.4285714 C9.8,16.823058 9.48661875,17.1428571 9.1,17.1428571 L4.9,17.1428571 C4.51338125,17.1428571 4.2,16.823058 4.2,16.4285714 L4.2,15.7142857 L9.8,15.7142857 L9.8,16.4285714 L9.8,16.4285714 Z M11.2,10.9220313 C10.4730063,11.659308 9.8,11.8682143 9.8,13.6908036 L9.8,14.2857143 L8.4,14.2857143 L8.4,11.4285714 L11.2,8.57142857 L11.2,7.14285714 L9.8,5.71428571 L8.4,7.14285714 L7,5.71428571 L5.6,7.14285714 L4.2,5.71428571 L2.8,7.14285714 L2.8,8.57142857 L5.6,11.4285714 L5.6,14.2857143 L4.2,14.2857143 L4.2,13.6908036 C4.2,11.8682143 3.52699375,11.659308 2.8,10.9220313 C1.92887188,9.91473214 1.4,8.59191964 1.4,7.14285714 C1.4,3.98694196 3.90720313,1.42857143 7,1.42857143 C10.0927969,1.42857143 12.6,3.98694196 12.6,7.14285714 C12.6,8.59191964 12.0711281,9.91473214 11.2,10.9220313 L11.2,10.9220313 Z M7,11.4285714 L4.2,8.57142857 L4.2,7.14285714 L5.6,8.57142857 L7,7.14285714 L8.4,8.57142857 L9.8,7.14285714 L9.8,8.57142857 L7,11.4285714 L7,11.4285714 Z"></path>
	</symbol>
	<symbol id="bitpodcast" viewBox="0 0 17 20">
		<path d="M6.02030009,2.33830846 L6.02030009,8.85572139 L10.3133274,8.85572139 C10.5481036,8.85572139 10.8415693,8.80873458 11.1937335,8.71475954 C11.5458976,8.62078449 11.8868768,8.44389295 12.2166814,8.1840796 C12.5464859,7.92426625 12.8259771,7.55942745 13.0551633,7.08955224 C13.2843495,6.61967703 13.3989409,6.00884842 13.3989409,5.25704809 C13.3989409,4.51630365 13.2815546,3.94969793 13.0467785,3.55721393 C12.8120024,3.16472993 12.4989722,2.87728118 12.1076787,2.69485904 C11.7163852,2.5124369 11.2636095,2.40740755 10.749338,2.37976783 C10.2350666,2.35212811 9.69844351,2.33830846 9.13945278,2.33830846 L6.02030009,2.33830846 Z M6.02030009,10.8955224 L5.98676081,17.628524 L10.0617829,17.628524 C11.3251019,17.628524 12.306116,17.3410753 13.0048544,16.7661692 C13.7035928,16.191263 14.0529568,15.3012774 14.0529568,14.0961857 C14.0529568,13.0237647 13.7343368,12.2222249 13.0970874,11.6915423 C12.4598379,11.1608597 11.5207476,10.8955224 10.2797882,10.8955224 L6.02030009,10.8955224 Z M8.7537511,0 C10.0506096,0 11.1741641,0.0939736318 12.1244484,0.281923715 C13.0747326,0.469873798 13.8601028,0.771142206 14.4805825,1.18573798 C15.1010622,1.60033375 15.5622227,2.13930017 15.8640777,2.8026534 C16.1659327,3.46600663 16.3168579,4.2730743 16.3168579,5.2238806 C16.3168579,5.69928375 16.2441902,6.16362405 16.0988526,6.61691542 C15.953515,7.0702068 15.763461,7.49308814 15.5286849,7.88557214 C15.2939088,8.27805614 15.0311871,8.62631136 14.7405119,8.93034826 C14.4498367,9.23438516 14.1647557,9.48037496 13.8852604,9.66832504 C14.3436328,9.84521924 14.7628695,10.0884451 15.1429832,10.39801 C15.5230969,10.7075748 15.8473067,11.0585939 16.1156222,11.4510779 C16.3839378,11.8435619 16.5935562,12.2664433 16.7444837,12.7197347 C16.8954112,13.173026 16.9708738,13.6318385 16.9708738,14.0961857 C16.9708738,14.9253773 16.8562824,15.6992778 16.6270962,16.4179104 C16.39791,17.1365431 16.0345715,17.7611914 15.5370697,18.291874 C15.039568,18.8225566 14.4079179,19.23991 13.6421006,19.5439469 C12.8762833,19.8479838 11.9567574,20 10.8834951,20 L0,20 L0,17.6616915 L3.27007944,17.6616915 L3.27007944,2.33830846 L0,2.33830846 L0,0 L8.7537511,0 Z"></path>
	</symbol>
	<symbol id="article" viewBox="0 0 17 20">
		<path d="M9.91666667,4.28571429 L2.83333333,4.28571429 L2.83333333,5.71428571 L9.91666667,5.71428571 L9.91666667,4.28571429 L9.91666667,4.28571429 Z M12.75,0 L0,0 L0,20 L17,20 L17,4.28571429 L12.75,0 L12.75,0 Z M15.5833333,18.5714286 L1.41666667,18.5714286 L1.41666667,1.42857143 L11.3333333,1.42857143 L15.5833333,5.71428571 L15.5833333,18.5714286 L15.5833333,18.5714286 Z M2.83333333,15.7142857 L14.1666667,15.7142857 L14.1666667,14.2857143 L2.83333333,14.2857143 L2.83333333,15.7142857 L2.83333333,15.7142857 Z M2.83333333,12.8571429 L14.1666667,12.8571429 L14.1666667,11.4285714 L2.83333333,11.4285714 L2.83333333,12.8571429 L2.83333333,12.8571429 Z M2.83333333,10 L14.1666667,10 L14.1666667,8.57142857 L2.83333333,8.57142857 L2.83333333,10 L2.83333333,10 Z"></path>
	</symbol>
	<symbol id="arjbuilders" viewBox="0 0 20 12">
		<path d="M1.97843361,5.56125088 C1.89550474,5.37264389 1.85996977,5.2217206 1.85996977,5.09593254 C1.85996977,4.76898903 2.19168383,4.60551575 2.86697088,4.60551575 L2.86697088,4.24085176 L1.01050033e-06,4.24085176 L1.01050033e-06,4.60551575 C0.414609294,4.60551575 0.710788383,4.68095977 0.900394333,4.81929629 C1.08989635,4.95766958 1.27943301,5.25944108 1.45714681,5.71217417 L4.02793759,12 L4.2767603,12 L6.85940714,5.71217417 C7.03712239,5.27198954 7.20294405,4.98280635 7.35698039,4.8570183 C7.55844384,4.69358332 7.86644434,4.60551575 8.30476762,4.60551575 L8.30476762,4.24085176 L4.41890305,4.24085176 L4.41890305,4.60551575 C5.16529757,4.60551575 5.43779631,4.75640226 5.43779631,5.07079731 C5.43779631,5.18396181 5.3903692,5.34743356 5.30747497,5.56125088 L4.80986852,6.75593704 L2.46411327,6.75593704 L1.97843361,5.56125088 L1.97843361,5.56125088 Z M3.63704286,9.62321446 L2.70107849,7.32187141 L4.5847608,7.32187141 L3.63704286,9.62321446 Z M7.67557526,7.76905431 C7.85883238,7.76905431 8.00736005,7.92798263 8.00736005,8.12396332 C8.00736005,8.3200191 7.85883238,8.47891064 7.67557526,8.47891064 C7.49238888,8.47891064 7.34382512,8.3200191 7.34382512,8.12396332 C7.34382512,7.92798263 7.49238888,7.76905431 7.67557526,7.76905431 Z M15.7322226,7.76905431 C15.9154783,7.76905431 16.064042,7.92798263 16.064042,8.12396332 C16.064042,8.3200191 15.9154783,8.47891064 15.7322226,8.47891064 C15.5490001,8.47891064 15.4004364,8.3200191 15.4004364,8.12396332 C15.4004364,7.92798263 15.5490001,7.76905431 15.7322226,7.76905431 Z M14.7892742,4.99535436 C14.4930951,5.20917167 14.0903097,5.62414445 13.5808775,6.21513897 L12.4317337,7.54823673 C13.0595936,7.61105567 13.5689883,7.83742299 13.9481655,8.2272973 C14.3390949,8.62972161 14.5286676,9.10758841 14.5286676,9.66093601 C14.5286676,10.2645158 14.3036292,10.7675929 13.8651659,11.1700172 C13.4268787,11.5850283 12.8463419,11.7861838 12.1355546,11.7861838 L8.16679723,11.7861838 L8.16679723,11.4215182 C8.65251297,11.4215182 8.96054956,11.333489 9.09086946,11.1574687 C9.22119224,10.9813351 9.29229971,10.5789108 9.29229971,9.95019582 L9.29229971,6.07687754 C9.29229971,5.43553745 9.22119224,5.03303806 9.09086946,4.85701784 C8.96054956,4.69350931 8.65251297,4.60551682 8.16679723,4.60551682 L8.16679723,4.2408513 L11.9104483,4.2408513 L11.9104483,4.60551682 C11.4247326,4.60551682 11.1048385,4.69350931 10.9745171,4.8695663 C10.8442319,5.04566314 10.7731244,5.44808592 10.7731244,6.07687754 L10.7731244,7.54823673 L11.1167667,7.54823673 L13.2254499,4.2408513 L14.2646557,4.2408513 C14.3351669,4.49492208 14.5524505,4.68055017 14.8090945,4.68055017 C15.0809653,4.68055017 15.2909876,4.50352319 15.356201,4.2408513 L15.7962768,4.2408513 L15.7962768,4.60551682 C15.4289902,4.65582407 15.0973108,4.78153704 14.7892742,4.99535436 Z M10.7731244,8.1141328 L10.7731244,11.2202877 L11.4247326,11.2202877 C11.9223058,11.2202877 12.3014123,11.0693644 12.5739125,10.7550429 C12.8227352,10.4783331 12.9411644,10.1136676 12.9411644,9.66093601 C12.9411644,8.75550813 12.4080562,8.1141328 11.4247326,8.1141328 L10.7731244,8.1141328 Z M16.0530608,11.4215181 C16.5387765,11.4215181 16.846777,11.3334888 16.9771345,11.1573935 C17.1074558,10.981335 17.1785286,10.5789107 17.1785286,9.95019567 L17.1785286,4.67689995 C17.1785286,3.63313708 16.8586345,3.10492472 16.2070625,3.10492472 C15.9108834,3.10492472 15.6739528,3.21812753 15.5080951,3.43194331 C15.3702311,3.61485454 15.2994066,3.8214468 15.2952303,4.0631913 C15.2951264,4.37010232 15.0907512,4.59281956 14.8090945,4.59281956 C14.5448024,4.59281956 14.3295197,4.36157476 14.3236602,4.07510844 C14.3266773,3.627403 14.5159685,3.26612552 14.8920233,2.97917497 C15.2592738,2.68991517 15.7094546,2.53902865 16.2425975,2.53902865 C16.9534584,2.53902865 17.5220641,2.76539443 17.9486006,3.21812753 C18.4224589,3.70857957 18.659388,4.40026369 18.659388,5.29306649 L18.659388,9.95019567 C18.659388,10.5915342 18.7304594,10.9939585 18.8608168,11.1573935 C18.9910674,11.3334888 19.3109947,11.4215181 19.7966411,11.4215181 L19.7966411,11.7861836 L16.0530608,11.7861836 L16.0530608,11.4215181 Z M17.2206593,0.00014925149 L17.2206593,0.0350762454 C17.3526682,0.0350762454 17.3699593,0.060174707 17.3699593,0.23035052 L17.3699593,0.772711127 C17.3699593,0.942923717 17.3526682,0.966272228 17.2206593,0.966272228 L17.2206593,1.00131262 L17.6450911,1.00131262 L17.6450911,0.966272228 C17.5130143,0.966272228 17.4957579,0.942923717 17.4957579,0.772711127 L17.4957579,0.255409141 C17.4957579,0.0867993953 17.5130143,0.0618143281 17.6450911,0.0618143281 L17.8336793,0.0618143281 C17.9013482,0.0618143281 17.9453035,0.070156475 17.9657546,0.088549346 C17.9862057,0.106908505 18.0034664,0.140235719 18.014517,0.188644383 L18.0224104,0.222046682 L18.0554206,0.222046682 L18.0428254,0.00014925149 L17.2206593,0.00014925149 Z M18.9624443,1.00131216 L18.9766519,0.776026686 L18.9436056,0.776026686 L18.9357844,0.809427454 C18.9231199,0.859512515 18.9058952,0.892876505 18.8854427,0.90952249 C18.864957,0.927918426 18.8210031,0.936183955 18.7534381,0.936183955 L18.5474491,0.936183955 L18.5474491,0.230350061 C18.5474491,0.0618154007 18.566357,0.0350757857 18.6983615,0.0350757857 L18.6983615,7.52386874e-05 L18.272388,7.52386874e-05 L18.272388,0.0350757857 C18.4043579,0.0350757857 18.4232673,0.0618154007 18.4232673,0.230350061 L18.4232673,0.936183955 L18.2173129,0.936183955 C18.1496801,0.936183955 18.105654,0.927918426 18.0853083,0.90952249 C18.0648558,0.892876505 18.0475632,0.859512515 18.0349681,0.809427454 L18.0271454,0.776026686 L17.9941698,0.776026686 L18.0082721,1.00131216 L18.9624443,1.00131216 Z M19.0489157,0.00014925149 L19.0489157,0.0350762454 C19.1809202,0.0350762454 19.1982503,0.060174707 19.1982503,0.23035052 L19.1982503,0.772711127 C19.1982503,0.942923717 19.1809202,0.966272228 19.0489157,0.966272228 L19.0489157,1.00131262 L19.4749599,1.00131262 C19.8349492,1.00131262 20,0.781051742 20,0.500730168 C20,0.220407061 19.8349492,0.00014925149 19.4749599,0.00014925149 L19.0489157,0.00014925149 Z M19.3240807,0.939534145 L19.3240807,0.255409141 C19.3287477,0.0818100436 19.3350619,0.0668389239 19.470225,0.0618143281 L19.4765392,0.0618143281 C19.7751738,0.0618143281 19.84905,0.292090682 19.84905,0.500730168 C19.84905,0.710935721 19.7751738,0.939534145 19.4765392,0.939534145 L19.3240807,0.939534145 Z M2.86900531,1.10051276 C2.86900531,0.809017242 2.76253755,0.571109754 2.54967277,0.380716033 C2.33663331,0.196390443 2.03968336,0.101174428 1.66429404,0.101174428 L3.28230247e-16,0.101174428 L3.28230247e-16,0.226105894 C0.470666511,0.226105894 0.532337346,0.315325799 0.532337346,0.922033106 L0.532337346,2.85517395 C0.532337346,3.46191957 0.470666511,3.54521998 0,3.54521998 L0,3.67015145 L1.50734601,3.67015145 C2.19656065,3.67015145 2.58885853,3.29535705 2.58885853,2.77790643 C2.58885853,2.47453362 2.41517806,2.2068356 2.15172763,2.04034663 C2.58324448,1.89757854 2.86900531,1.52877872 2.86900531,1.10051276 Z M0.980588072,3.45004075 L0.980588072,2.11169313 L1.47931762,2.11169313 C1.88277142,2.11169313 2.09574014,2.39123474 2.09574014,2.77790643 C2.09574014,3.16450456 1.88277142,3.45004075 1.47931762,3.45004075 L0.980588072,3.45004075 L0.980588072,3.45004075 Z M1.65857605,0.321282067 C2.12373389,0.321282067 2.37588837,0.648414057 2.37588837,1.10051276 C2.37588837,1.5584574 2.12373389,1.89158396 1.65857605,1.89158396 L0.980588072,1.89158396 L0.980588072,1.01125454 C0.980588072,0.410503505 1.04225746,0.321282067 1.51295862,0.321282067 L1.65857605,0.321282067 L1.65857605,0.321282067 Z M5.7060879,0.148689115 L4.95516778,0 C4.93278664,0.0535849626 4.88795507,0.255819199 4.86557394,0.380788973 C4.68621157,0.184472696 4.42283188,2.17760908e-17 4.13142235,2.17760908e-17 C3.64398875,2.17760908e-17 3.43659655,0.345040637 3.43659655,0.892243489 L3.43659655,1.26703789 C3.43659655,1.8737835 3.38057442,1.96300494 2.99392379,1.96300494 L2.99392379,2.08194029 L3.8344724,2.08194029 L3.8344724,0.922070802 C3.8344724,0.517524178 3.96900319,0.285611268 4.26037663,0.285611268 C4.49011388,0.285611268 4.86557394,0.517524178 4.86557394,0.874445172 L4.86557394,1.26703789 C4.86557394,1.86778892 4.79829194,1.96300494 4.41725392,1.96300494 L4.41725392,2.08194029 L5.25780252,2.08194029 L5.25780252,0.969586101 C5.25780252,0.368836595 5.32501523,0.273694134 5.7060879,0.273694134 L5.7060879,0.148689115 Z M7.19659493,0.101174122 L5.91340965,0.101174122 L5.91340965,0.226030502 C6.28876433,0.226030502 6.35608241,0.321283293 6.35608241,0.922071108 L6.35608241,1.21944934 C6.35608241,1.82019884 6.28876433,1.90949384 5.91340965,1.90949384 L5.91340965,2.03435175 L6.75392217,2.18303933 L6.75392217,0.922071108 C6.75392217,0.315325492 6.81555691,0.226030502 7.19659493,0.226030502 L7.19659493,0.101174122 Z M6.5522494,2.76595374 C6.41771716,2.76595374 6.30563679,2.88492741 6.30563679,3.03369008 C6.30563679,3.17642139 6.41771716,3.29535675 6.5522494,3.29535675 C6.68667481,3.29535675 6.79875374,3.17642139 6.79875374,3.03369008 C6.79875374,2.88492741 6.68667481,2.76595374 6.5522494,2.76595374 Z M8.69278531,0.101174122 L7.40952929,0.101174122 L7.40952929,0.226030502 C7.79617848,0.226030502 7.85227135,0.315325492 7.85227135,0.922071108 L7.85227135,2.8016653 C7.85227135,3.40841092 7.79617848,3.49763082 7.40952929,3.49763082 L7.40952929,3.62256229 L8.25004325,3.7712514 L8.25004325,0.922071108 C8.25004325,0.321283293 8.31736134,0.226030502 8.69278531,0.226030502 L8.69278531,0.101174122 Z M10.4330965,2.80170193 C10.4330965,3.40833568 10.3771437,3.49763067 9.99045842,3.49763067 L9.99045842,3.62248705 L10.8309724,3.77125125 L10.8309724,0.969586255 C10.8309724,0.368836749 10.8981836,0.273619202 11.2736451,0.273619202 L11.2736451,0.148764354 L10.5284084,7.52386874e-05 C10.5060272,0.0535835834 10.4611249,0.237984259 10.4387438,0.362840639 C10.2762885,0.142805021 10.040868,7.52386874e-05 9.74945987,7.52386874e-05 C9.22280731,7.52386874e-05 8.77448585,0.499724482 8.77448585,1.09451772 C8.77448585,1.6893462 9.21719182,2.18304071 9.74945987,2.18304071 C10.0241341,2.18304071 10.2538035,2.06410382 10.4330965,1.8321526 L10.4330965,2.80170193 Z M10.4330965,1.47519483 C10.3266634,1.76065746 10.1137294,1.94513016 9.86711675,1.94513016 C9.44693051,1.94513016 9.22834774,1.60016307 9.22834774,1.09451772 C9.22834774,0.58894592 9.44693051,0.237984259 9.86711675,0.237984259 C10.1137294,0.237984259 10.3266634,0.42238187 10.4330965,0.707918052 L10.4330965,1.47519483 L10.4330965,1.47519483 Z M11.722911,1.24320438 C11.7173345,1.17781721 11.7116858,1.11827598 11.7116858,1.05288728 C11.7116858,0.571108375 11.9582984,0.24993725 12.4513792,0.24993725 C12.6363196,0.24993725 12.9108552,0.36283972 13.0678032,0.523481213 L13.1686208,0.392630256 C12.9669481,0.16064226 12.625129,7.43192738e-05 12.3112358,7.43192738e-05 C11.7004259,7.43192738e-05 11.2746256,0.493767295 11.2746256,1.09451833 C11.2746256,1.71909904 11.7901251,2.18303979 12.3112358,2.18303979 C12.5298172,2.18303979 12.714795,2.11169329 12.8660583,1.9689252 C13.0228995,1.82619388 13.1013735,1.65367356 13.1013735,1.44547999 C13.1013735,1.38008976 13.0901843,1.3086697 13.0733797,1.24320438 L11.722911,1.24320438 Z M12.6867305,1.4633534 C12.6979543,1.49898987 12.7035323,1.5346999 12.7035323,1.57629417 C12.7035323,1.77260892 12.5690722,1.94513077 12.2832767,1.94513077 C12.0423489,1.94513077 11.8405693,1.75477383 11.7565534,1.4633534 L12.6867305,1.4633534 Z M15.0448327,1.53470005 C14.9383995,1.53470005 14.8487364,1.63580031 14.8487364,1.74885142 C14.8487364,1.87970391 14.7870656,1.94513092 14.6694433,1.94513092 C14.5853914,1.94513092 14.4901503,1.87970391 14.3892605,1.75477398 C14.288336,1.62987929 14.2379265,1.45735897 14.2379265,1.24920218 L14.2379265,0.922071721 C14.2379265,0.315326105 14.2995973,0.226031115 14.6806339,0.226031115 L14.6806339,0.101174735 L13.3974472,0.101174735 L13.3974472,0.226031115 C13.7728351,0.226031115 13.8400853,0.321282374 13.8400853,0.922071721 L13.8400853,1.21944995 C13.8400853,1.82019793 13.7728351,1.90949292 13.3974472,1.90949292 L13.3974472,2.03435083 L14.1426132,2.18303994 C14.1707123,2.12949329 14.2211233,1.87970391 14.2379265,1.75477398 C14.3500069,1.99275655 14.6022292,2.18303994 14.8263206,2.18303994 C15.1121147,2.18303994 15.269028,1.98676198 15.269028,1.81424166 C15.269028,1.66562609 15.2018153,1.53470005 15.0448327,1.53470005 Z M16.2641023,7.44725094e-05 C16.1239936,7.44725094e-05 16.0119508,0.0535843496 15.8718752,0.130926962 C15.804661,0.172594791 15.7597934,0.19039464 15.7318011,0.19039464 C15.6869349,0.19039464 15.6645537,0.124930852 15.6645537,7.44725094e-05 L15.552508,7.44725094e-05 L15.552508,0.868486758 L15.6645537,0.868486758 C15.6645537,0.713876619 15.7205398,0.565187504 15.8326548,0.416424835 C15.9446659,0.273619968 16.0959998,0.202273465 16.2809055,0.202273465 C16.4602693,0.202273465 16.5947323,0.339157308 16.5947323,0.505646273 C16.5947323,0.648414364 16.4882284,0.755432586 16.2809055,0.868486758 L15.9726582,1.0469281 C15.7205398,1.18969619 15.5972688,1.42764352 15.5972688,1.64179489 C15.5972688,1.95101364 15.8606846,2.18303994 16.1688598,2.18303994 C16.3425749,2.18303994 16.449008,2.14144567 16.5610869,2.07598188 C16.6003434,2.05810848 16.6227578,2.04622965 16.6339151,2.04622965 C16.6620143,2.04622965 16.673238,2.09385528 16.673238,2.18303994 L16.7908603,2.18303994 L16.7908603,1.493069 L16.673238,1.493069 C16.673238,1.76065669 16.4938757,1.99275655 16.2192693,1.99275655 C16.02879,1.99275655 15.9334753,1.9094209 15.9334753,1.73697413 C15.9334753,1.60016384 16.0119508,1.52282123 16.2752929,1.37413211 L16.5442491,1.21944995 C16.7908603,1.07068575 16.9309358,0.862602511 16.9309358,0.648414364 C16.9309358,0.267737252 16.6395624,7.44725094e-05 16.2641023,7.44725094e-05 Z" transform="translate(10.000000, 6.000000) scale(1, -1) translate(-10.000000, -6.000000) "></path>
	</symbol>
	<symbol id="anchor" viewBox="0 0 24 22">
		<path d="M23.9463284,11.622 L23.9503284,16.014 L22.2413284,15.3 C20.4643284,19.251 16.6163284,22 11.9813284,22 C7.34632837,22 3.49932837,19.251 1.72232837,15.3 L0.01332837,16.014 L0.01732837,11.622 C-0.05467163,11.355 0.10432837,11.081 0.37132837,11.01 L5.02532837,12.972 L3.37932837,14.301 C4.70332837,17.353 7.54032837,19.549 10.9823284,19.915 L10.9823284,7.858 C9.25932837,7.413 7.98132837,5.862 7.98132837,4 C7.98132837,1.791 9.77232837,0 11.9813284,0 C14.1903284,0 15.9813284,1.791 15.9813284,4 C15.9813284,5.862 14.7043284,7.413 12.9813284,7.858 L12.9813284,19.915 C16.4253284,19.548 19.2453284,17.343 20.5603284,14.282 L18.9373284,12.971 L23.5933284,11.009 C23.8583284,11.081 24.0173284,11.355 23.9463284,11.622 L23.9463284,11.622 Z M13.9813284,4 C13.9813284,2.896 13.0853284,2 11.9813284,2 C10.8773284,2 9.98132837,2.896 9.98132837,4 C9.98132837,5.104 10.8773284,6 11.9813284,6 C13.0853284,6 13.9813284,5.104 13.9813284,4 L13.9813284,4 Z"></path>
	</symbol>
	<symbol id="basekit" viewBox="0 0 21 14">
		<path d="M10.9686767,13.070125 C10.3883567,13.594525 9.37657673,13.855425 7.93385673,13.855425 L0.981626726,13.855425 L0.981626726,0.144375 L7.68564673,0.144375 C9.23226673,0.144375 10.2672367,0.431565 10.7897967,1.005865 C11.3245267,1.500035 11.5907267,2.401675 11.5907267,3.710975 C11.5907267,4.746085 11.4066267,5.507925 11.0380267,5.995905 C10.7449567,6.352595 10.2941567,6.602985 9.68446673,6.745815 L9.68446673,6.816505 C10.3544967,6.894515 10.8539867,7.106425 11.1816267,7.452925 C11.5093267,7.799825 11.7131267,8.182225 11.7939267,8.600325 C11.8729267,9.018325 11.9133267,9.497025 11.9133267,10.035025 C11.9133267,11.514025 11.5978267,12.525725 10.9686767,13.070125 L10.9686767,13.070125 Z M7.89921673,5.848465 C8.33208673,5.771505 8.62693673,5.569455 8.78467673,5.243625 C8.94318673,4.917875 9.02260673,4.491815 9.02260673,3.964925 C9.02260673,3.453335 8.93984673,3.069285 8.77446673,2.813695 C8.64942673,2.652395 8.46862673,2.542925 8.23255673,2.483115 C7.99598673,2.424035 7.61760673,2.394025 7.09760673,2.394025 L3.55023673,2.394025 L3.55023673,5.883935 L7.06361673,5.883935 C7.46699673,5.883935 7.74533673,5.872195 7.89921673,5.848465 L7.89921673,5.848465 Z M7.52475673,7.896825 L3.55023673,7.896825 L3.55023673,11.606025 L7.38616673,11.606025 C7.85359673,11.606025 8.21977673,11.570725 8.48719673,11.499225 C9.04695673,11.290725 9.32716673,10.729925 9.32716673,9.816225 C9.32716673,9.060725 9.21439673,8.548725 8.98797673,8.280925 C8.72640673,8.025225 8.23911673,7.896825 7.52475673,7.896825 Z M17.7554267,13.855625 L11.9209267,6.838005 L17.2945267,0.144375 L20.4288267,0.144375 L15.0264267,6.853165 L20.9816267,13.855625 L17.7554267,13.855625 Z"></path>
	</symbol>
	<symbol id="person" viewBox="0 0 10 21">
		<path d="M8.75,4.25 C8.75,2.1796875 7.07152344,0.5 5,0.5 C2.92847656,0.5 1.25,2.1796875 1.25,4.25 C1.25,6.32152344 2.92847656,8 5,8 C7.07152344,8 8.75,6.32152344 8.75,4.25 L8.75,4.25 Z M5,6.75 C3.62,6.75 2.5,5.63 2.5,4.25 C2.5,2.87 3.62,1.75 5,1.75 C6.37939453,1.75 7.5,2.87 7.5,4.25 C7.5,5.63 6.37939453,6.75 5,6.75 L5,6.75 Z M7.5,8 L5,8 L2.5,8 C1.12,8 0,9.12 0,10.5 L0,13 C0,14.3793945 1.12,15.5 2.5,15.5 L2.5,20.5 L7.5,20.5 L7.5,15.5 C8.87939453,15.5 10,14.3793945 10,13 L10,10.5 C10,9.12 8.87939453,8 7.5,8 L7.5,8 Z M8.75,13 C8.75,13.690918 8.19091797,14.25 7.5,14.25 L7.5,11.75 L6.25,11.75 L6.25,19.25 L3.75,19.25 L3.75,11.75 L2.5,11.75 L2.5,14.25 C1.8103125,14.25 1.25,13.690918 1.25,13 L1.25,10.5 C1.25,9.8103125 1.8103125,9.25 2.5,9.25 L7.5,9.25 C8.19091797,9.25 8.75,9.8103125 8.75,10.5 L8.75,13 L8.75,13 Z"></path>
	</symbol>
	<symbol id="discuss" viewBox="0 0 20 19">
		<path d="M5.71428571,4.38461538 L1.42857143,4.38461538 C0.714285714,4.38461538 0,5.11538462 0,5.84615385 L0,13.1538462 C0,13.8846154 0.714285714,14.6153846 1.42857143,14.6153846 L2.85714286,14.6153846 L2.85714286,19 L7.1875,14.6153846 L11.4732143,14.6153846 C12.1428571,14.6153846 12.8571429,13.8846154 12.8571429,13.1538462 L12.8571429,11.6923077 L8.57142857,11.6923077 C7.14285714,11.6923077 5.71428571,10.2307692 5.71428571,8.76923077 L5.71428571,4.38461538 Z M8.57142857,0 C7.85714286,0 7.14285714,0.730769231 7.14285714,1.46153846 L7.14285714,8.76923077 C7.14285714,9.5 7.85714286,10.2307692 8.57142857,10.2307692 L12.8125,10.2307692 L17.1428571,14.6153846 L17.1428571,10.2307692 L18.5714286,10.2307692 C19.2857143,10.2307692 20,9.5 20,8.76923077 L20,1.46153846 C20,0.730769231 19.2857143,0 18.5714286,0 L8.57142857,0 Z"></path>
	</symbol>
</svg>
