<svg display="none" version="1.1" xmlns="http://www.w3.org/2000/svg">
	<symbol id="logo">
		<path d="M19.243,0 L26.875,20.969 L21.633,22.879 L14,1.907 L19.243,0 L19.243,0 Z" id="right-eye"></path>
		<path d="M8.241,4 L15.875,24.972 L10.632,26.879 L3,5.91 L8.241,4 L8.241,4 Z" id="left-eye"></path>
		<path d="M31.545,18.91 L33.455,24.152 L7.152,33.723 L5.243,28.482 L0,30.389 L3.817,40.875 L40.606,27.486 L36.787,17 L31.545,18.91 L31.545,18.91 Z" id="mouth"></path>
	</symbol>
	<symbol id="dribbble" viewBox="0 0 20 20">
		<path d="M10,20 C4.48559458,20 0,15.5141784 0,10 C0,4.48582157 4.48559458,0.000258966723 10,1.77635684e-15 C15.5138882,0.000258966723 20,4.48582157 20,10 C20,15.5141784 15.5138882,20 10,20 Z M9.46154244,7.20471319 C8.10841566,4.80745824 6.66218383,2.7867409 6.37097191,2.38586042 C4.04438008,3.49734559 2.3025397,5.64210799 1.74339213,8.22297035 L1.82589355,8.22297035 C2.60409662,8.22297035 5.82941085,8.1603004 9.46154244,7.20471319 Z M11.4671805,11.4579826 C6.83960068,13.0700505 5.08819118,16.2289266 4.84663529,16.7025767 C6.27450473,17.8042212 8.06134589,18.4614787 10,18.4614787 C11.156313,18.4614787 12.2583148,18.2273728 13.2630735,17.8049981 C13.1283298,17.0185161 12.6356489,14.4798653 11.4767496,11.454875 C11.4733875,11.4556519 11.4705426,11.4569468 11.4671805,11.4579826 Z M15.5658718,3.66360223 C14.0785186,2.35789201 12.1300367,1.56519487 10,1.56519487 C9.34464387,1.56519487 8.70713288,1.64081316 8.09470853,1.78324485 C8.43816273,2.24783115 9.88361868,4.24731322 11.2028656,6.66321378 C14.0531733,5.58332254 15.3305229,3.98575683 15.5658718,3.66360223 Z M10.5782858,10.038845 C10.6711323,10.0093228 10.7652718,9.98109543 10.8594114,9.95442186 C10.6584596,9.50252493 10.4412145,9.05011006 10.2136244,8.6039104 C6.46355972,9.71876214 2.82418662,9.80603392 1.77649615,9.80603392 C1.67951172,9.80603392 1.60554492,9.80525702 1.55511302,9.80422116 C1.55304402,9.87388321 1.55123364,9.94328629 1.55123364,10.0129483 C1.55149227,12.1584876 2.35581648,14.1186068 3.67816686,15.6102551 C4.03506957,15.0200699 6.3564889,11.4051534 10.5782858,10.038845 Z M13.1650546,11.0400104 C14.2155899,13.9417325 14.6712874,16.3213777 14.7845653,16.9719021 C16.6342523,15.6957141 17.9524647,13.7021883 18.3341954,11.3971255 C18.012983,11.2989771 16.6319247,10.9120808 14.8665494,10.9125987 C14.3283505,10.9118218 13.7552372,10.9483361 13.1650546,11.0400104 Z M11.9014121,8.015538 C12.0907257,8.40554189 12.2733151,8.80176097 12.4429732,9.20108766 C12.5009052,9.33600932 12.5565096,9.47067202 12.6115968,9.60481678 C13.2656598,9.52427813 13.9179124,9.49268419 14.5375782,9.49268419 C16.4586458,9.49268419 18.066777,9.79386249 18.4459215,9.87077561 C18.4135933,7.92386378 17.7197021,6.1354396 16.5791652,4.72018646 C16.2843325,5.10319824 14.8572389,6.79580474 11.9014121,8.015538 Z"></path>
	</symbol>
	<symbol id="github" viewBox="0 0 20 20">
		<path d="M9.99907916,0 C4.47773105,0 0,4.5904205 0,10.2533868 C0,14.7833822 2.86503576,18.6260419 6.83876117,19.9818304 C7.33908346,20.0762447 7.5214095,19.7596422 7.5214095,19.4877292 C7.5214095,19.2447699 7.512815,18.5996059 7.50790386,17.7442129 C4.72635747,18.3635703 4.13947635,16.3695415 4.13947635,16.3695415 C3.68458209,15.1849574 3.02894503,14.8696139 3.02894503,14.8696139 C2.12099819,14.2338913 3.09770097,14.2464799 3.09770097,14.2464799 C4.10141502,14.3188641 4.62936247,15.30329 4.62936247,15.30329 C5.52134811,16.869937 6.97013414,16.417378 7.53982627,16.1549064 C7.63068234,15.4927479 7.88913104,15.0408184 8.17459099,14.784641 C5.95414224,14.525946 3.6195095,13.6460053 3.6195095,9.7171139 C3.6195095,8.59799041 4.00933116,7.68217225 4.64900703,6.96588286 C4.54587311,6.7065584 4.20270727,5.66359573 4.74722981,4.25241751 C4.74722981,4.25241751 5.5864207,3.97672792 7.4968538,5.30356275 C8.29430001,5.07570971 9.15006599,4.96241262 10.0003069,4.95800662 C10.849934,4.96241262 11.7050861,5.07570971 12.5037601,5.30356275 C14.4129654,3.97672792 15.2509285,4.25241751 15.2509285,4.25241751 C15.7966788,5.66359573 15.453513,6.7065584 15.350993,6.96588286 C15.9918966,7.68217225 16.3786488,8.59799041 16.3786488,9.7171139 C16.3786488,13.6560761 14.0403327,14.5227989 11.8131312,14.7764585 C12.1716443,15.0930609 12.4914822,15.7187126 12.4914822,16.6754436 C12.4914822,18.045709 12.4792044,19.1516145 12.4792044,19.4877292 C12.4792044,19.7621599 12.6596888,20.0812801 13.1667639,19.981201 C17.1374198,18.6222653 20,14.7821233 20,10.2533868 C20,4.5904205 15.5222689,0 9.99907916,0"></path>
	</symbol>
	<symbol id="tumblr" viewBox="0 0 12 20">
		<path d="M10.9957284,15.9743292 C10.6076192,16.1516993 9.86487665,16.3060213 9.31043501,16.3200505 C7.63978729,16.3631405 7.31549124,15.1957047 7.30084561,14.3479359 L7.30084561,8.12194582 L11.4936797,8.12194582 L11.4936797,5.09462956 L7.31653736,5.09462956 L7.31653736,0 L4.25769331,0 C4.20747973,0 4.11960596,0.042087813 4.10809868,0.149311527 C3.9292128,1.70856479 3.16659402,4.44527473 0,5.53855578 L0,8.12194582 L2.11315491,8.12194582 L2.11315491,14.6575819 C2.11315491,16.8942486 3.83610845,20.0728805 8.38462209,19.9987258 C9.91822858,19.9736736 11.622352,19.3573877 12,18.8272817 L10.9957284,15.9743292"></path>
	</symbol>
	<symbol id="codepen" viewBox="0 0 20 20" fill-rule="evenodd">
		<path d="M10.0000853,0 C4.47705577,0 0,4.47708886 0,10.000064 C0,15.5230817 4.47705577,20 10.0000853,20 C15.5229442,20 20,15.5230817 20,10.000064 C20,4.47708886 15.5229442,0 10.0000853,0 Z M15.1203895,10.8893508 L13.7910184,10.000064 L15.1203895,9.11081977 L15.1203895,10.8893508 Z M10.5314159,14.6588218 L10.5314159,12.1803046 L12.8352185,10.6395506 L14.6949311,11.8833072 L10.5314159,14.6588218 Z M10.0000938,11.257208 L8.12055579,10.000064 L10.0000938,8.74291988 L11.8794613,10.000064 L10.0000938,11.257208 Z M9.46860118,14.6588218 L5.30504334,11.8833072 L7.16492643,10.6395506 L9.46860118,12.1803046 L9.46860118,14.6588218 Z M4.87962754,9.11081977 L6.20912653,10.000064 L4.87962754,10.8893508 L4.87962754,9.11081977 Z M9.46860118,5.34130613 L9.46860118,7.81982328 L7.16492643,9.36091836 L5.30504334,8.11677805 L9.46860118,5.34130613 Z M10.5314159,5.34130613 L14.6949311,8.11677805 L12.8352185,9.36091836 L10.5314159,7.81982328 L10.5314159,5.34130613 Z M16.1784717,8.04685618 C16.1773632,8.03905392 16.1754019,8.03159275 16.1741229,8.02379049 C16.1714795,8.00878287 16.1687508,7.99381788 16.1648284,7.97919398 C16.1625261,7.97041111 16.1592858,7.96196932 16.1565571,7.95352754 C16.1522936,7.94048114 16.1480727,7.92747738 16.1428712,7.9148147 C16.1392471,7.90603183 16.1350689,7.89724896 16.1310185,7.88880717 C16.1254333,7.87674139 16.1196349,7.86501668 16.1129411,7.85367569 C16.1080807,7.84519127 16.1028792,7.83704793 16.0978482,7.82894723 C16.0906854,7.81786205 16.0833522,7.80711796 16.0753367,7.79671495 C16.0695383,7.78891269 16.0633562,7.78111044 16.057174,7.77360663 C16.0486896,7.76388578 16.0399067,7.7541223 16.0306548,7.74499835 C16.0237053,7.73787825 16.0167983,7.73071553 16.0095077,7.72419233 C15.9997442,7.71540946 15.9896822,7.70692504 15.9794071,7.69882433 C15.9714769,7.69264222 15.963632,7.6864601 15.9553608,7.68061906 C15.9522484,7.67865784 15.9495197,7.67605709 15.9465779,7.67409587 L10.2947469,3.906245 C10.1162326,3.78720728 9.88378449,3.78720728 9.70522752,3.906245 L4.05343918,7.67409587 C4.05049734,7.67605709 4.04772604,7.67865784 4.04465629,7.68061906 C4.0363424,7.6864601 4.02854012,7.69264222 4.02073785,7.69882433 C4.01033482,7.70692504 4.00023023,7.71540946 3.99067991,7.72419233 C3.98317608,7.73071553 3.97635442,7.73787825 3.96936222,7.74499835 C3.96011034,7.7541223 3.95132745,7.76388578 3.94301355,7.77360663 C3.93666088,7.78111044 3.93047875,7.78891269 3.92463771,7.79671495 C3.91683543,7.80711796 3.90933161,7.81786205 3.9023394,7.82894723 C3.89696735,7.83704793 3.89193637,7.84519127 3.88707594,7.85367569 C3.88055273,7.86501668 3.87471168,7.87674139 3.86899854,7.88880717 C3.86494818,7.89724896 3.86072727,7.90603183 3.8571459,7.9148147 C3.85194439,7.92747738 3.84772348,7.94048114 3.84345995,7.95352754 C3.84068865,7.96196932 3.8376189,7.97041111 3.83518868,7.97919398 C3.83126623,7.99381788 3.82866547,8.00878287 3.82589417,8.02379049 C3.82461511,8.03159275 3.82265388,8.03905392 3.82167327,8.04685618 C3.81856089,8.06962342 3.81681283,8.09273175 3.81681283,8.11613852 L3.81681283,11.8839894 C3.81681283,11.9073962 3.81856089,11.9305045 3.82167327,11.9536128 C3.82265388,11.9611166 3.82461511,11.9688762 3.82589417,11.9763374 C3.82866547,11.991345 3.83126623,12.0062674 3.83518868,12.0209339 C3.8376189,12.0297168 3.84068865,12.0381586 3.84345995,12.046643 C3.84772348,12.0596041 3.85194439,12.0726505 3.8571459,12.0856543 C3.86072727,12.0944798 3.86494818,12.1029216 3.86899854,12.1113634 C3.87471168,12.1233439 3.88055273,12.1350686 3.88707594,12.1467933 C3.89193637,12.1549793 3.89696735,12.1630373 3.9023394,12.1711807 C3.90933161,12.1822659 3.91683543,12.1930099 3.92463771,12.203413 C3.93047875,12.2115563 3.93666088,12.2190175 3.94301355,12.2264786 C3.95132745,12.2362421 3.96011034,12.2460056 3.96936222,12.2551296 C3.97635442,12.2622497 3.98317608,12.2694124 3.99067991,12.2758929 C4.00023023,12.2847611 4.01033482,12.2932029 4.02073785,12.3013036 C4.02854012,12.3075283 4.0363424,12.3136678 4.04465629,12.3195088 C4.04772604,12.3214701 4.05049734,12.3240708 4.05343918,12.3259894 L9.70522752,16.0938829 C9.79450601,16.1534018 9.8972999,16.1833317 10.0000938,16.1833317 C10.1027172,16.1833317 10.2054684,16.1534018 10.2947469,16.0938829 L15.9465779,12.3259894 C15.9495197,12.3240708 15.9522484,12.3214701 15.9553608,12.3195088 C15.963632,12.3136678 15.9714769,12.3075283 15.9794071,12.3013036 C15.9896822,12.2932029 15.9997442,12.2847611 16.0095077,12.2758929 C16.0167983,12.2694124 16.0237053,12.2622497 16.0306548,12.2551296 C16.0399067,12.2460056 16.0486896,12.2362421 16.057174,12.2264786 C16.0633562,12.2190175 16.0695383,12.2115563 16.0753367,12.203413 C16.0833522,12.1930099 16.0906854,12.1822659 16.0978482,12.1711807 C16.1028792,12.1630373 16.1080807,12.1549793 16.1129411,12.1467933 C16.1196349,12.1350686 16.1254333,12.1233439 16.1310185,12.1113634 C16.1350689,12.1029216 16.1392471,12.0944798 16.1428712,12.0856543 C16.1480727,12.0726505 16.1522936,12.0596041 16.1565571,12.046643 C16.1592858,12.0381586 16.1625261,12.0297168 16.1648284,12.0209339 C16.1687508,12.0062674 16.1714795,11.991345 16.1741229,11.9763374 C16.1754019,11.9688762 16.1773632,11.9611166 16.1784717,11.9536128 C16.1814135,11.9305045 16.1832469,11.9073962 16.1832469,11.8839894 L16.1832469,8.11613852 C16.1832469,8.09273175 16.1814135,8.06962342 16.1784717,8.04685618 L16.1784717,8.04685618 Z"></path>
	</symbol>
	<symbol id="twitter" viewBox="0 0 20 17">
		<path d="M6.28991551,17 C3.97271297,17 1.81586744,16.2895561 0,15.0718928 C0.321006621,15.1115277 0.64764622,15.1318042 0.978821464,15.1318042 C2.90120341,15.1318042 4.67047076,14.4456922 6.07476499,13.2946736 C4.27923479,13.2600122 2.76389041,12.0192413 2.24177914,10.314176 C2.4922638,10.3642935 2.74933246,10.3911503 3.01371667,10.3911503 C3.38798054,10.3911503 3.75046637,10.3387374 4.09480961,10.2406449 C2.21763781,9.84643844 0.803321263,8.11183826 0.803321263,6.03246046 C0.803321263,6.01440287 0.803321263,5.99642179 0.803613885,5.97851722 C1.35688943,6.29995769 1.98953875,6.49300561 2.66220418,6.51527154 C1.56121292,5.74568139 0.836753356,4.43206798 0.836753356,2.94315819 C0.836753356,2.15665817 1.03910165,1.41943397 1.39229672,0.785581831 C3.41607228,3.38204953 6.43951864,5.09063454 9.84973847,5.26960365 C9.77980175,4.95550865 9.74344343,4.62794696 9.74344343,4.29158603 C9.74344343,1.92152688 11.5806723,0 13.8468122,0 C15.0269578,0 16.0933465,0.521221723 16.8418742,1.35531421 C17.7765097,1.1628019 18.6546692,0.80562882 19.447456,0.313865459 C19.1410805,1.31598538 18.4905081,2.15704075 17.6432935,2.68820945 C18.4733165,2.58445481 19.2641282,2.3537614 20,2.01242697 C19.4498701,2.87307024 18.7541607,3.62896416 17.952522,4.23404658 C17.9604228,4.4180657 17.9643732,4.60315603 17.9643732,4.78924106 C17.9643732,10.4604731 13.8372289,17 6.28991551,17"></path>
	</symbol>
	<symbol id="youtube" viewBox="0 0 20 15">
		<path d="M19.8002839,3.23594178 C19.8002839,3.23594178 19.6048754,1.76628532 19.0051789,1.11909697 C18.2446522,0.269673994 17.3921778,0.265456423 17.0012433,0.215743371 C14.2025356,0 10.0043272,0 10.0043272,0 L9.99563366,0 C9.99563366,0 5.79752313,0 2.99871751,0.215743371 C2.60776347,0.265456423 1.75560233,0.269673994 0.994801508,1.11909697 C0.395144158,1.76628532 0.20000979,3.23594178 0.20000979,3.23594178 C0.20000979,3.23594178 0,4.96180523 0,6.68764781 L0,8.30562913 C0,10.0314508 0.20000979,11.7572934 0.20000979,11.7572934 C0.20000979,11.7572934 0.395144158,13.2269707 0.994801508,13.8741591 C1.75560233,14.7236029 2.75496598,14.6967316 3.20007832,14.7857599 C4.8000979,14.9493683 10,15 10,15 C10,15 14.2025356,14.9932561 17.0012433,14.7775336 C17.3921778,14.7277996 18.2446522,14.7236029 19.0051789,13.8741591 C19.6048754,13.2269707 19.8002839,11.7572934 19.8002839,11.7572934 C19.8002839,11.7572934 20,10.0314508 20,8.30562913 L20,6.68764781 C20,4.96180523 19.8002839,3.23594178 19.8002839,3.23594178 Z M7.93522933,10.2663194 L7.93430907,4.27402798 L13.3383915,7.28061323 L7.93522933,10.2663194 Z"></path>
	</symbol>
</svg>