<svg display="none" version="1.1" xmlns="http://www.w3.org/2000/svg">
	<symbol id="smiley" viewBox="-2 0 22 20">
		<path d="M9.47790967,0 L13.2369601,10.2600612 L10.6550756,11.1946177 L6.89553268,0.933088685 L9.47790967,0 Z M4.05900606,1.95718654 L7.81904152,12.2187156 L5.23666453,13.1518043 L1.47761415,2.89174312 L4.05900606,1.95718654 Z M15.5371127,9.25259939 L16.4778604,11.8174924 L3.52263212,16.5005505 L2.58237699,13.9361468 L0,14.8692355 L1.88001773,20 L20,13.4488073 L18.1189972,8.31804281 L15.5371127,9.25259939 Z"></path>
	</symbol>
	<symbol id="frowny" viewBox="0 0 17 20">
		<path d="M8.02101195,0 L11.4060331,9.23917478 L9.08104869,10.080742 L5.69558407,0.840245422 L8.02101195,0 L8.02101195,0 Z M3.1412947,1.76244451 L6.52720285,11.0029411 L4.20177497,11.8431865 L0.816753887,2.60401177 L3.1412947,1.76244451 L3.1412947,1.76244451 Z M3.38810439,16.8487492 L15.0542744,12.6316601 L15.9009732,14.940903 L18.2264011,14.1006576 L16.533447,9.48040931 L0.216421225,15.3797517 L1.91026235,20 L4.23524675,19.1584327 L3.38810439,16.8487492 Z"></path>
	</symbol>
	<symbol id="dribbble" viewBox="0 0 20 20">
		<path fill="#ea4c89" d="M10,20 C4.48559458,20 0,15.5141784 0,10 C0,4.48582157 4.48559458,0.000258966723 10,1.77635684e-15 C15.5138882,0.000258966723 20,4.48582157 20,10 C20,15.5141784 15.5138882,20 10,20 Z M9.46154244,7.20471319 C8.10841566,4.80745824 6.66218383,2.7867409 6.37097191,2.38586042 C4.04438008,3.49734559 2.3025397,5.64210799 1.74339213,8.22297035 L1.82589355,8.22297035 C2.60409662,8.22297035 5.82941085,8.1603004 9.46154244,7.20471319 Z M11.4671805,11.4579826 C6.83960068,13.0700505 5.08819118,16.2289266 4.84663529,16.7025767 C6.27450473,17.8042212 8.06134589,18.4614787 10,18.4614787 C11.156313,18.4614787 12.2583148,18.2273728 13.2630735,17.8049981 C13.1283298,17.0185161 12.6356489,14.4798653 11.4767496,11.454875 C11.4733875,11.4556519 11.4705426,11.4569468 11.4671805,11.4579826 Z M15.5658718,3.66360223 C14.0785186,2.35789201 12.1300367,1.56519487 10,1.56519487 C9.34464387,1.56519487 8.70713288,1.64081316 8.09470853,1.78324485 C8.43816273,2.24783115 9.88361868,4.24731322 11.2028656,6.66321378 C14.0531733,5.58332254 15.3305229,3.98575683 15.5658718,3.66360223 Z M10.5782858,10.038845 C10.6711323,10.0093228 10.7652718,9.98109543 10.8594114,9.95442186 C10.6584596,9.50252493 10.4412145,9.05011006 10.2136244,8.6039104 C6.46355972,9.71876214 2.82418662,9.80603392 1.77649615,9.80603392 C1.67951172,9.80603392 1.60554492,9.80525702 1.55511302,9.80422116 C1.55304402,9.87388321 1.55123364,9.94328629 1.55123364,10.0129483 C1.55149227,12.1584876 2.35581648,14.1186068 3.67816686,15.6102551 C4.03506957,15.0200699 6.3564889,11.4051534 10.5782858,10.038845 Z M13.1650546,11.0400104 C14.2155899,13.9417325 14.6712874,16.3213777 14.7845653,16.9719021 C16.6342523,15.6957141 17.9524647,13.7021883 18.3341954,11.3971255 C18.012983,11.2989771 16.6319247,10.9120808 14.8665494,10.9125987 C14.3283505,10.9118218 13.7552372,10.9483361 13.1650546,11.0400104 Z M11.9014121,8.015538 C12.0907257,8.40554189 12.2733151,8.80176097 12.4429732,9.20108766 C12.5009052,9.33600932 12.5565096,9.47067202 12.6115968,9.60481678 C13.2656598,9.52427813 13.9179124,9.49268419 14.5375782,9.49268419 C16.4586458,9.49268419 18.066777,9.79386249 18.4459215,9.87077561 C18.4135933,7.92386378 17.7197021,6.1354396 16.5791652,4.72018646 C16.2843325,5.10319824 14.8572389,6.79580474 11.9014121,8.015538 Z"></path>
	</symbol>
	<symbol id="github" viewBox="0 0 20 20">
		<path fill="#333333" d="M9.99907916,0 C4.47773105,0 0,4.5904205 0,10.2533868 C0,14.7833822 2.86503576,18.6260419 6.83876117,19.9818304 C7.33908346,20.0762447 7.5214095,19.7596422 7.5214095,19.4877292 C7.5214095,19.2447699 7.512815,18.5996059 7.50790386,17.7442129 C4.72635747,18.3635703 4.13947635,16.3695415 4.13947635,16.3695415 C3.68458209,15.1849574 3.02894503,14.8696139 3.02894503,14.8696139 C2.12099819,14.2338913 3.09770097,14.2464799 3.09770097,14.2464799 C4.10141502,14.3188641 4.62936247,15.30329 4.62936247,15.30329 C5.52134811,16.869937 6.97013414,16.417378 7.53982627,16.1549064 C7.63068234,15.4927479 7.88913104,15.0408184 8.17459099,14.784641 C5.95414224,14.525946 3.6195095,13.6460053 3.6195095,9.7171139 C3.6195095,8.59799041 4.00933116,7.68217225 4.64900703,6.96588286 C4.54587311,6.7065584 4.20270727,5.66359573 4.74722981,4.25241751 C4.74722981,4.25241751 5.5864207,3.97672792 7.4968538,5.30356275 C8.29430001,5.07570971 9.15006599,4.96241262 10.0003069,4.95800662 C10.849934,4.96241262 11.7050861,5.07570971 12.5037601,5.30356275 C14.4129654,3.97672792 15.2509285,4.25241751 15.2509285,4.25241751 C15.7966788,5.66359573 15.453513,6.7065584 15.350993,6.96588286 C15.9918966,7.68217225 16.3786488,8.59799041 16.3786488,9.7171139 C16.3786488,13.6560761 14.0403327,14.5227989 11.8131312,14.7764585 C12.1716443,15.0930609 12.4914822,15.7187126 12.4914822,16.6754436 C12.4914822,18.045709 12.4792044,19.1516145 12.4792044,19.4877292 C12.4792044,19.7621599 12.6596888,20.0812801 13.1667639,19.981201 C17.1374198,18.6222653 20,14.7821233 20,10.2533868 C20,4.5904205 15.5222689,0 9.99907916,0"></path>
	</symbol>
	<symbol id="codepen" viewBox="0 0 20 20" fill-rule="evenodd">
		<path fill="#111111" d="M10.0000853,0 C4.47705577,0 0,4.47708886 0,10.000064 C0,15.5230817 4.47705577,20 10.0000853,20 C15.5229442,20 20,15.5230817 20,10.000064 C20,4.47708886 15.5229442,0 10.0000853,0 Z M15.1203895,10.8893508 L13.7910184,10.000064 L15.1203895,9.11081977 L15.1203895,10.8893508 Z M10.5314159,14.6588218 L10.5314159,12.1803046 L12.8352185,10.6395506 L14.6949311,11.8833072 L10.5314159,14.6588218 Z M10.0000938,11.257208 L8.12055579,10.000064 L10.0000938,8.74291988 L11.8794613,10.000064 L10.0000938,11.257208 Z M9.46860118,14.6588218 L5.30504334,11.8833072 L7.16492643,10.6395506 L9.46860118,12.1803046 L9.46860118,14.6588218 Z M4.87962754,9.11081977 L6.20912653,10.000064 L4.87962754,10.8893508 L4.87962754,9.11081977 Z M9.46860118,5.34130613 L9.46860118,7.81982328 L7.16492643,9.36091836 L5.30504334,8.11677805 L9.46860118,5.34130613 Z M10.5314159,5.34130613 L14.6949311,8.11677805 L12.8352185,9.36091836 L10.5314159,7.81982328 L10.5314159,5.34130613 Z M16.1784717,8.04685618 C16.1773632,8.03905392 16.1754019,8.03159275 16.1741229,8.02379049 C16.1714795,8.00878287 16.1687508,7.99381788 16.1648284,7.97919398 C16.1625261,7.97041111 16.1592858,7.96196932 16.1565571,7.95352754 C16.1522936,7.94048114 16.1480727,7.92747738 16.1428712,7.9148147 C16.1392471,7.90603183 16.1350689,7.89724896 16.1310185,7.88880717 C16.1254333,7.87674139 16.1196349,7.86501668 16.1129411,7.85367569 C16.1080807,7.84519127 16.1028792,7.83704793 16.0978482,7.82894723 C16.0906854,7.81786205 16.0833522,7.80711796 16.0753367,7.79671495 C16.0695383,7.78891269 16.0633562,7.78111044 16.057174,7.77360663 C16.0486896,7.76388578 16.0399067,7.7541223 16.0306548,7.74499835 C16.0237053,7.73787825 16.0167983,7.73071553 16.0095077,7.72419233 C15.9997442,7.71540946 15.9896822,7.70692504 15.9794071,7.69882433 C15.9714769,7.69264222 15.963632,7.6864601 15.9553608,7.68061906 C15.9522484,7.67865784 15.9495197,7.67605709 15.9465779,7.67409587 L10.2947469,3.906245 C10.1162326,3.78720728 9.88378449,3.78720728 9.70522752,3.906245 L4.05343918,7.67409587 C4.05049734,7.67605709 4.04772604,7.67865784 4.04465629,7.68061906 C4.0363424,7.6864601 4.02854012,7.69264222 4.02073785,7.69882433 C4.01033482,7.70692504 4.00023023,7.71540946 3.99067991,7.72419233 C3.98317608,7.73071553 3.97635442,7.73787825 3.96936222,7.74499835 C3.96011034,7.7541223 3.95132745,7.76388578 3.94301355,7.77360663 C3.93666088,7.78111044 3.93047875,7.78891269 3.92463771,7.79671495 C3.91683543,7.80711796 3.90933161,7.81786205 3.9023394,7.82894723 C3.89696735,7.83704793 3.89193637,7.84519127 3.88707594,7.85367569 C3.88055273,7.86501668 3.87471168,7.87674139 3.86899854,7.88880717 C3.86494818,7.89724896 3.86072727,7.90603183 3.8571459,7.9148147 C3.85194439,7.92747738 3.84772348,7.94048114 3.84345995,7.95352754 C3.84068865,7.96196932 3.8376189,7.97041111 3.83518868,7.97919398 C3.83126623,7.99381788 3.82866547,8.00878287 3.82589417,8.02379049 C3.82461511,8.03159275 3.82265388,8.03905392 3.82167327,8.04685618 C3.81856089,8.06962342 3.81681283,8.09273175 3.81681283,8.11613852 L3.81681283,11.8839894 C3.81681283,11.9073962 3.81856089,11.9305045 3.82167327,11.9536128 C3.82265388,11.9611166 3.82461511,11.9688762 3.82589417,11.9763374 C3.82866547,11.991345 3.83126623,12.0062674 3.83518868,12.0209339 C3.8376189,12.0297168 3.84068865,12.0381586 3.84345995,12.046643 C3.84772348,12.0596041 3.85194439,12.0726505 3.8571459,12.0856543 C3.86072727,12.0944798 3.86494818,12.1029216 3.86899854,12.1113634 C3.87471168,12.1233439 3.88055273,12.1350686 3.88707594,12.1467933 C3.89193637,12.1549793 3.89696735,12.1630373 3.9023394,12.1711807 C3.90933161,12.1822659 3.91683543,12.1930099 3.92463771,12.203413 C3.93047875,12.2115563 3.93666088,12.2190175 3.94301355,12.2264786 C3.95132745,12.2362421 3.96011034,12.2460056 3.96936222,12.2551296 C3.97635442,12.2622497 3.98317608,12.2694124 3.99067991,12.2758929 C4.00023023,12.2847611 4.01033482,12.2932029 4.02073785,12.3013036 C4.02854012,12.3075283 4.0363424,12.3136678 4.04465629,12.3195088 C4.04772604,12.3214701 4.05049734,12.3240708 4.05343918,12.3259894 L9.70522752,16.0938829 C9.79450601,16.1534018 9.8972999,16.1833317 10.0000938,16.1833317 C10.1027172,16.1833317 10.2054684,16.1534018 10.2947469,16.0938829 L15.9465779,12.3259894 C15.9495197,12.3240708 15.9522484,12.3214701 15.9553608,12.3195088 C15.963632,12.3136678 15.9714769,12.3075283 15.9794071,12.3013036 C15.9896822,12.2932029 15.9997442,12.2847611 16.0095077,12.2758929 C16.0167983,12.2694124 16.0237053,12.2622497 16.0306548,12.2551296 C16.0399067,12.2460056 16.0486896,12.2362421 16.057174,12.2264786 C16.0633562,12.2190175 16.0695383,12.2115563 16.0753367,12.203413 C16.0833522,12.1930099 16.0906854,12.1822659 16.0978482,12.1711807 C16.1028792,12.1630373 16.1080807,12.1549793 16.1129411,12.1467933 C16.1196349,12.1350686 16.1254333,12.1233439 16.1310185,12.1113634 C16.1350689,12.1029216 16.1392471,12.0944798 16.1428712,12.0856543 C16.1480727,12.0726505 16.1522936,12.0596041 16.1565571,12.046643 C16.1592858,12.0381586 16.1625261,12.0297168 16.1648284,12.0209339 C16.1687508,12.0062674 16.1714795,11.991345 16.1741229,11.9763374 C16.1754019,11.9688762 16.1773632,11.9611166 16.1784717,11.9536128 C16.1814135,11.9305045 16.1832469,11.9073962 16.1832469,11.8839894 L16.1832469,8.11613852 C16.1832469,8.09273175 16.1814135,8.06962342 16.1784717,8.04685618 L16.1784717,8.04685618 Z"></path>
	</symbol>
	<symbol id="twitter" viewBox="0 0 20 17">
		<path fill="#55acee" d="M6.28991551,17 C3.97271297,17 1.81586744,16.2895561 0,15.0718928 C0.321006621,15.1115277 0.64764622,15.1318042 0.978821464,15.1318042 C2.90120341,15.1318042 4.67047076,14.4456922 6.07476499,13.2946736 C4.27923479,13.2600122 2.76389041,12.0192413 2.24177914,10.314176 C2.4922638,10.3642935 2.74933246,10.3911503 3.01371667,10.3911503 C3.38798054,10.3911503 3.75046637,10.3387374 4.09480961,10.2406449 C2.21763781,9.84643844 0.803321263,8.11183826 0.803321263,6.03246046 C0.803321263,6.01440287 0.803321263,5.99642179 0.803613885,5.97851722 C1.35688943,6.29995769 1.98953875,6.49300561 2.66220418,6.51527154 C1.56121292,5.74568139 0.836753356,4.43206798 0.836753356,2.94315819 C0.836753356,2.15665817 1.03910165,1.41943397 1.39229672,0.785581831 C3.41607228,3.38204953 6.43951864,5.09063454 9.84973847,5.26960365 C9.77980175,4.95550865 9.74344343,4.62794696 9.74344343,4.29158603 C9.74344343,1.92152688 11.5806723,0 13.8468122,0 C15.0269578,0 16.0933465,0.521221723 16.8418742,1.35531421 C17.7765097,1.1628019 18.6546692,0.80562882 19.447456,0.313865459 C19.1410805,1.31598538 18.4905081,2.15704075 17.6432935,2.68820945 C18.4733165,2.58445481 19.2641282,2.3537614 20,2.01242697 C19.4498701,2.87307024 18.7541607,3.62896416 17.952522,4.23404658 C17.9604228,4.4180657 17.9643732,4.60315603 17.9643732,4.78924106 C17.9643732,10.4604731 13.8372289,17 6.28991551,17"></path>
	</symbol>
	<symbol id="bitpodcast" viewBox="0 0 17 20">
		<path d="M6.02030009,2.33830846 L6.02030009,8.85572139 L10.3133274,8.85572139 C10.5481036,8.85572139 10.8415693,8.80873458 11.1937335,8.71475954 C11.5458976,8.62078449 11.8868768,8.44389295 12.2166814,8.1840796 C12.5464859,7.92426625 12.8259771,7.55942745 13.0551633,7.08955224 C13.2843495,6.61967703 13.3989409,6.00884842 13.3989409,5.25704809 C13.3989409,4.51630365 13.2815546,3.94969793 13.0467785,3.55721393 C12.8120024,3.16472993 12.4989722,2.87728118 12.1076787,2.69485904 C11.7163852,2.5124369 11.2636095,2.40740755 10.749338,2.37976783 C10.2350666,2.35212811 9.69844351,2.33830846 9.13945278,2.33830846 L6.02030009,2.33830846 Z M6.02030009,10.8955224 L5.98676081,17.628524 L10.0617829,17.628524 C11.3251019,17.628524 12.306116,17.3410753 13.0048544,16.7661692 C13.7035928,16.191263 14.0529568,15.3012774 14.0529568,14.0961857 C14.0529568,13.0237647 13.7343368,12.2222249 13.0970874,11.6915423 C12.4598379,11.1608597 11.5207476,10.8955224 10.2797882,10.8955224 L6.02030009,10.8955224 Z M8.7537511,0 C10.0506096,0 11.1741641,0.0939736318 12.1244484,0.281923715 C13.0747326,0.469873798 13.8601028,0.771142206 14.4805825,1.18573798 C15.1010622,1.60033375 15.5622227,2.13930017 15.8640777,2.8026534 C16.1659327,3.46600663 16.3168579,4.2730743 16.3168579,5.2238806 C16.3168579,5.69928375 16.2441902,6.16362405 16.0988526,6.61691542 C15.953515,7.0702068 15.763461,7.49308814 15.5286849,7.88557214 C15.2939088,8.27805614 15.0311871,8.62631136 14.7405119,8.93034826 C14.4498367,9.23438516 14.1647557,9.48037496 13.8852604,9.66832504 C14.3436328,9.84521924 14.7628695,10.0884451 15.1429832,10.39801 C15.5230969,10.7075748 15.8473067,11.0585939 16.1156222,11.4510779 C16.3839378,11.8435619 16.5935562,12.2664433 16.7444837,12.7197347 C16.8954112,13.173026 16.9708738,13.6318385 16.9708738,14.0961857 C16.9708738,14.9253773 16.8562824,15.6992778 16.6270962,16.4179104 C16.39791,17.1365431 16.0345715,17.7611914 15.5370697,18.291874 C15.039568,18.8225566 14.4079179,19.23991 13.6421006,19.5439469 C12.8762833,19.8479838 11.9567574,20 10.8834951,20 L0,20 L0,17.6616915 L3.27007944,17.6616915 L3.27007944,2.33830846 L0,2.33830846 L0,0 L8.7537511,0 Z"></path>
	</symbol>
	<symbol id="anchor" viewBox="0 0 24 22">
		<path d="M23.9463284,11.622 L23.9503284,16.014 L22.2413284,15.3 C20.4643284,19.251 16.6163284,22 11.9813284,22 C7.34632837,22 3.49932837,19.251 1.72232837,15.3 L0.01332837,16.014 L0.01732837,11.622 C-0.05467163,11.355 0.10432837,11.081 0.37132837,11.01 L5.02532837,12.972 L3.37932837,14.301 C4.70332837,17.353 7.54032837,19.549 10.9823284,19.915 L10.9823284,7.858 C9.25932837,7.413 7.98132837,5.862 7.98132837,4 C7.98132837,1.791 9.77232837,0 11.9813284,0 C14.1903284,0 15.9813284,1.791 15.9813284,4 C15.9813284,5.862 14.7043284,7.413 12.9813284,7.858 L12.9813284,19.915 C16.4253284,19.548 19.2453284,17.343 20.5603284,14.282 L18.9373284,12.971 L23.5933284,11.009 C23.8583284,11.081 24.0173284,11.355 23.9463284,11.622 L23.9463284,11.622 Z M13.9813284,4 C13.9813284,2.896 13.0853284,2 11.9813284,2 C10.8773284,2 9.98132837,2.896 9.98132837,4 C9.98132837,5.104 10.8773284,6 11.9813284,6 C13.0853284,6 13.9813284,5.104 13.9813284,4 L13.9813284,4 Z"></path>
	</symbol>
	<symbol id="basekit" viewBox="-1 0 21 15">
        	<path fill="#166CCB" d="M9.98704997,13.42575 C9.40672997,13.95015 8.39495,14.21105 6.95223,14.21105 L0,14.21105 L0,0.5 L6.70402,0.5 C8.25064,0.5 9.28560997,0.78719 9.80816997,1.36149 C10.3429,1.85566 10.6091,2.7573 10.6091,4.0666 C10.6091,5.10171 10.425,5.86355 10.0564,6.35153 C9.76332997,6.70822 9.31252997,6.95861 8.70284,7.10144 L8.70284,7.17213 C9.37286997,7.25014 9.87235997,7.46205 10.2,7.80855 C10.5277,8.15545 10.7315,8.53785 10.8123,8.95595 C10.8913,9.37395 10.9317,9.85265 10.9317,10.39065 C10.9317,11.86965 10.6162,12.88135 9.98704997,13.42575 L9.98704997,13.42575 L9.98704997,13.42575 Z M6.91759,6.20409 C7.35046,6.12713 7.64531,5.92508 7.80305,5.59925 C7.96156,5.2735 8.04098,4.84744 8.04098,4.32055 C8.04098,3.80896 7.95822,3.42491 7.79284,3.16932 C7.6678,3.00802 7.487,2.89855 7.25093,2.83874 C7.01436,2.77966 6.63598,2.74965 6.11598,2.74965 L2.56861,2.74965 L2.56861,6.23956 L6.08199,6.23956 C6.48537,6.23956 6.76371,6.22782 6.91759,6.20409 L6.91759,6.20409 L6.91759,6.20409 Z M6.54313,8.25245 L2.56861,8.25245 L2.56861,11.96165 L6.40454,11.96165 C6.87197,11.96165 7.23815,11.92635 7.50557,11.85485 C8.06533,11.64635 8.34554,11.08555 8.34554,10.17185 C8.34554,9.41635 8.23277,8.90435 8.00635,8.63655 C7.74478,8.38085 7.25749,8.25245 6.54313,8.25245 L6.54313,8.25245 Z M16.7738,14.21125 L10.9393,7.19363 L16.3129,0.5 L19.4472,0.5 L14.0448,7.20879 L20,14.21125 L16.7738,14.21125 L16.7738,14.21125 Z"></path>
	</symbol>
	<symbol id="arjbuilders" viewBox="0 1 20 19">
	        <path fill="#5F7B6C" d="M4.76457122,16.0061531 C4.56485731,16.4603669 4.47928003,16.8238288 4.47928003,17.1267585 C4.47928003,17.9141221 5.27813224,18.3078075 6.904396,18.3078075 L6.904396,19.1860116 L0,19.1860116 L0,18.3078075 C0.998482686,18.3078075 1.71175761,18.126119 2.16837719,17.7929693 C2.62474646,17.4597311 3.08119917,16.7329882 3.50917941,15.6426912 L9.70030049,0.5 L10.2995292,0.5 L16.5192027,15.6426912 C16.9471864,16.7027683 17.3465273,17.3991953 17.7174862,17.7021251 C18.2026616,18.0957183 18.9444055,18.3078075 20,18.3078075 L20,19.1860116 L10.6418452,19.1860116 L10.6418452,18.3078075 C12.4393539,18.3078075 13.0956005,17.9444342 13.0956005,17.1872906 C13.0956005,16.9147616 12.9813839,16.5210798 12.7817534,16.0061531 L11.58339,13.1290436 L5.93421194,13.1290436 L4.76457122,16.0061531 Z M8.7563239,6.19999695 L6.50228254,11.742219 L11.0386709,11.742219 L8.7563239,6.19999695 Z"></path>
	</symbol>
	<symbol id="pill" viewBox="0 0 18 18">
        	<path d="M9.09107666,-0.0531740246 C8.94320182,-0.0779891915 8.79129134,-0.0909090909 8.63636364,-0.0909090909 C7.13319738,-0.0909090909 5.90909091,1.12777267 5.90909091,2.6310928 L5.90909091,15.3689072 C5.90909091,16.8697164 7.1301325,18.0909091 8.63636364,18.0909091 C8.79112479,18.0909091 8.94292788,18.0779909 9.09074153,18.053174 C7.80095427,17.8367323 6.81818182,16.7153464 6.81818182,15.3689072 L6.81818182,2.6310928 C6.81818182,1.28254966 7.80320383,0.16305119 9.09107666,-0.0531740246 Z M5,3.09556001 C5,0.833644676 6.8361597,-1 9.09090909,-1 C11.3502558,-1 13.1818182,0.827886142 13.1818182,3.09556001 L13.1818182,14.90444 C13.1818182,17.1663553 11.3456585,19 9.09090909,19 C6.83156239,19 5,17.1721139 5,14.90444 L5,3.09556001 Z" transform="translate(9.090909, 9.000000) rotate(45.000000) translate(-9.090909, -9.000000)"></path>
	</symbol>
</svg>
