<svg xmlns="http://www.w3.org/2000/svg" display="none" version="1.1">
  <symbol id="dribbble" viewBox="0 0 20 20">
    <path fill="#ea4c89" d="M10 20C4.486 20 0 15.514 0 10S4.486 0 10 0s10 4.486 10 10-4.486 10-10 10zM9.462 7.205c-1.354-2.398-2.8-4.418-3.09-4.82C4.042 3.498 2.3 5.643 1.74 8.225h.084c.778 0 4.003-.064 7.636-1.02zm2.005 4.253c-4.627 1.612-6.38 4.77-6.62 5.245C6.275 17.803 8.06 18.46 10 18.46c1.156 0 2.258-.233 3.263-.655-.135-.786-.627-3.325-1.786-6.35-.004 0-.006.002-.01.003zm4.1-7.794c-1.488-1.306-3.437-2.1-5.567-2.1-.655 0-1.293.077-1.905.22.343.464 1.79 2.463 3.108 4.88 2.85-1.08 4.128-2.678 4.363-3zm-4.99 6.375l.282-.09c-.21-.45-.42-.91-.65-1.35-3.75 1.11-7.39 1.2-8.44 1.2-.1 0-.17 0-.22-.01-.01.07-.01.14-.01.21 0 2.14.8 4.1 2.12 5.59.35-.59 2.68-4.21 6.9-5.57zm2.588 1c1.05 2.9 1.506 5.28 1.62 5.93 1.85-1.28 3.167-3.27 3.55-5.58-.322-.1-1.703-.49-3.468-.49-.54 0-1.112.03-1.702.12zM11.9 8.01c.19.39.373.786.543 1.185l.17.405c.653-.08 1.305-.112 1.925-.112 1.92 0 3.53.3 3.908.38-.032-1.946-.726-3.735-1.867-5.15-.3.383-1.73 2.076-4.68 3.296z"/>
  </symbol>
  <symbol id="github" viewBox="0 0 20 20">
    <path fill="#4078c0" d="M10 0C4.477 0 0 4.59 0 10.253c0 4.53 2.865 8.373 6.84 9.73.5.093.68-.223.68-.495 0-.243-.007-.888-.012-1.744-2.782.62-3.37-1.374-3.37-1.374-.453-1.185-1.11-1.5-1.11-1.5-.907-.636.07-.624.07-.624 1.003.073 1.53 1.057 1.53 1.057.893 1.567 2.342 1.114 2.912.852.09-.662.35-1.114.635-1.37-2.22-.26-4.555-1.14-4.555-5.068 0-1.12.39-2.035 1.03-2.75-.104-.26-.447-1.303.097-2.715 0 0 .84-.275 2.75 1.052.797-.228 1.653-.342 2.503-.346.85.004 1.705.118 2.504.346 1.91-1.327 2.747-1.052 2.747-1.052.55 1.412.21 2.455.1 2.714.65.716 1.03 1.632 1.03 2.75 0 3.94-2.34 4.807-4.56 5.06.36.317.68.943.68 1.9 0 1.37-.01 2.476-.01 2.812 0 .274.18.593.69.493 3.96-1.35 6.82-5.19 6.82-9.72C20 4.59 15.53 0 10 0"/>
  </symbol>
  <symbol id="codepen" fill-rule="evenodd" viewBox="0 0 20 20">
    <path fill="#fff" d="M10 0C4.477 0 0 4.477 0 10s4.477 10 10 10 10-4.477 10-10S15.523 0 10 0zm5.12 10.89L13.79 10l1.33-.89v1.78zm-4.59 3.77v-2.48l2.305-1.54 1.86 1.243-4.164 2.776zM10 11.256L8.12 10 10 8.743 11.88 10 10 11.257zm-.53 3.402L5.305 11.88l1.86-1.242 2.304 1.54v2.48zM4.88 9.11l1.33.89-1.33.89V9.11zm4.59-3.77v2.48L7.164 9.36l-1.86-1.243L9.47 5.34zm1.06 0l4.165 2.777-1.86 1.244-2.304-1.54V5.34zm5.648 2.707c0-.008-.003-.015-.004-.023-.003-.015-.005-.03-.01-.045 0-.01-.005-.02-.007-.03l-.014-.04-.012-.03c0-.02-.01-.03-.01-.04l-.01-.03-.02-.04-.02-.027-.02-.03-.02-.02c-.01-.01-.02-.017-.03-.025l-.02-.02c-.002 0-.004-.005-.01-.007L10.3 3.9c-.18-.12-.41-.12-.59 0L4.052 7.675l-.008.007c-.01.01-.016.017-.024.02l-.03.028-.02.02c-.01.01-.02.02-.02.03l-.02.02-.02.03-.01.026-.02.035c-.002.01-.01.02-.01.03-.005.01-.01.03-.014.04l-.01.03-.01.05v.03c-.004.023-.006.046-.006.07v3.856l.01.044.01.022.012.04.01.02c.005.01.01.025.017.037l.01.022.025.038c.004.01.01.02.02.027l.023.03.02.02c.01.01.02.015.03.023l.027.02.008.006 5.65 3.77c.09.06.19.09.295.09.107 0 .21-.03.3-.09l5.65-3.77c0-.005.003-.008.006-.01.01-.004.015-.01.02-.02l.03-.022.02-.02.028-.03.016-.026c.01-.01.02-.02.026-.03l.014-.02.02-.036.015-.025.017-.04.01-.026.01-.045v-.02l.004-.07V8.11c0-.022 0-.045-.004-.07z"/>
  </symbol>
  <symbol id="twitter" viewBox="0 0 20 17">
    <path fill="#55acee" d="M6.29 17c-2.317 0-4.474-.71-6.29-1.928.32.04.648.06.98.06 1.92 0 3.69-.686 5.095-1.837-1.796-.035-3.31-1.276-3.833-2.98.25.05.507.076.772.076.374 0 .736-.05 1.08-.15C2.22 9.85.804 8.12.804 6.04v-.06c.554.32 1.187.513 1.86.535-1.1-.77-1.826-2.083-1.826-3.572 0-.786.202-1.524.555-2.157C3.416 3.382 6.44 5.09 9.85 5.27c-.07-.314-.107-.642-.107-.978C9.743 1.922 11.58 0 13.847 0c1.18 0 2.246.52 2.995 1.355.935-.192 1.813-.55 2.605-1.04-.306 1-.956 1.842-1.804 2.373.83-.104 1.62-.334 2.357-.676-.55.86-1.246 1.617-2.047 2.222.007.184.01.37.01.555C17.963 10.46 13.838 17 6.29 17"/>
  </symbol>
  <symbol id="experiment" viewBox="-3 0 20 20">
    <path d="M7 0C3.134 0 0 3.198 0 7.143c0 2.337 1.1 4.41 2.8 5.714v4.286c0 .79.627 1.428 1.4 1.428 0 .79.627 1.43 1.4 1.43h2.8c.773 0 1.4-.64 1.4-1.43.773 0 1.4-.63 1.4-1.42v-4.29c1.7-1.3 2.8-3.38 2.8-5.71C14 3.2 10.866 0 7 0zm2.8 16.43c0 .393-.313.713-.7.713H4.9c-.387 0-.7-.32-.7-.714v-.72h5.6v.71zm1.4-5.508c-.727.737-1.4.946-1.4 2.77v.594H8.4V11.43l2.8-2.86V7.144l-1.4-1.43-1.4 1.43L7 5.714l-1.4 1.43-1.4-1.43-1.4 1.43V8.57l2.8 2.86v2.856H4.2v-.595c0-1.82-.673-2.03-1.4-2.76-.87-1.01-1.4-2.33-1.4-3.78 0-3.16 2.507-5.72 5.6-5.72 3.093 0 5.6 2.56 5.6 5.72 0 1.45-.53 2.77-1.4 3.78zM7 11.43L4.2 8.57V7.144L5.6 8.57 7 7.144 8.4 8.57l1.4-1.427V8.57L7 11.43z"/>
  </symbol>
  <symbol id="link" viewBox="0 0 20 21">
    <path d="M10 1.658L7.73 4.04c1.316-.275 2.994-.068 3.865.364l.494-.518c1.06-1.123 3.15-1.106 4.21 0 1.05 1.105 1.03 3.333 0 4.42l-3.16 3.317c-1.04 1.088-3.16 1.105-4.21 0-.38-.398-.63-.898-.76-1.417l-2.25 2.366c.26.45.56.864.92 1.244 2.1 2.21 6.3 2.228 8.4.017l3.18-3.333c2.1-2.21 2.1-6.632 0-8.842-2.11-2.21-6.32-2.21-8.42 0zM8.405 16.596l-.494.518c-1.06 1.123-3.15 1.106-4.21 0-1.05-1.105-1.03-3.333 0-4.42l3.16-3.317c1.04-1.088 3.16-1.105 4.21 0 .38.398.63.898.76 1.417l2.26-2.366c-.26-.45-.56-.864-.92-1.244-2.1-2.21-6.3-2.228-8.4-.017L1.58 10.5c-2.106 2.21-2.106 6.632 0 8.842 2.104 2.21 6.315 2.21 8.42 0l2.27-2.383c-1.316.27-2.994.06-3.865-.37z"/>
  </symbol>
  <symbol id="anchor" viewBox="0 0 24 22">
    <path d="M23.946 11.622l.004 4.392-1.71-.714c-1.776 3.95-5.624 6.7-10.26 6.7-4.634 0-8.48-2.75-10.258-6.7l-1.71.714.005-4.392c-.072-.267.087-.54.354-.612l4.66 1.962-1.64 1.33c1.33 3.05 4.16 5.247 7.61 5.613V7.858C9.28 7.413 8 5.862 8 4c0-2.21 1.79-4 4-4 2.207 0 4 1.79 4 4 0 1.862-1.28 3.413-3 3.858v12.057c3.442-.367 6.262-2.572 7.577-5.633l-1.62-1.31 4.65-1.962c.264.07.423.34.352.61zM13.98 4c0-1.104-.895-2-2-2-1.103 0-2 .896-2 2s.897 2 2 2c1.105 0 2-.896 2-2z"/>
  </symbol>
  <symbol id="pill" viewBox="0 0 18 18">
    <path d="M15.493 2.6c-.087-.124-.186-.24-.295-.35-1.063-1.063-2.79-1.066-3.853-.003l-9.007 9.007c-1.062 1.06-1.062 2.788.003 3.853.11.11.23.207.35.294-.76-1.06-.66-2.55.29-3.5l9.01-9.01c.96-.95 2.45-1.05 3.51-.29zm-5.12-.668c1.6-1.6 4.195-1.597 5.79-.003 1.597 1.59 1.6 4.18-.004 5.78l-8.35 8.35c-1.6 1.6-4.2 1.59-5.79 0-1.6-1.6-1.6-4.19 0-5.79l8.35-8.35z"/>
  </symbol>
</svg>
